<svg width="63" height="56" viewBox="0 0 63 56" fill="none" xmlns="http://www.w3.org/2000/svg">
<g clip-path="url(#clip0_190_616)">
<path d="M26.8516 16.3161C26.682 16.6477 26.5306 16.9937 26.3843 17.3296C26.2307 17.6793 26.0728 18.0405 25.8952 18.3836C25.2539 19.6229 24.2538 20.5459 23.2683 21.3582C21.5353 22.7879 20.7936 24.5817 21.0731 26.6912C21.3642 28.8926 23.0201 30.3715 25.2008 30.3715C25.2918 30.3715 25.3849 30.3715 25.4766 30.3636C26.222 30.3216 26.9833 30.074 27.872 29.5803C28.7607 29.0866 29.8074 28.5965 30.996 28.5965C31.052 28.5965 31.1074 28.5965 31.1678 28.6001C32.2784 28.5763 33.3749 28.8514 34.3413 29.3964C34.9476 29.7294 35.7606 30.1348 36.6828 30.3187C36.9581 30.3741 37.2382 30.4022 37.5191 30.4026C38.0724 30.4026 38.6198 30.2892 39.1272 30.0696C39.6346 29.8501 40.0911 29.529 40.4684 29.1264C41.312 28.2403 41.7567 27.001 41.6876 25.724C41.6017 24.1372 40.8804 22.7162 39.6022 21.6137C37.9282 20.1709 36.8364 18.713 36.1558 17.0256C35.6347 15.7305 34.8158 14.7547 33.7211 14.1241C32.9467 13.6782 32.1453 13.4524 31.3388 13.4524C30.6219 13.4608 29.9154 13.6238 29.2681 13.9301C28.2287 14.4086 27.4157 15.21 26.8516 16.3161ZM34.6652 17.3426C34.6652 17.3701 34.6652 17.3977 34.6652 17.4252L34.5924 17.3991C34.456 17.3536 34.3229 17.2987 34.1942 17.2348C34.1357 17.1907 34.0879 17.134 34.0545 17.069C34.0414 17.048 34.029 17.0285 34.0159 17.0089C33.3091 15.9629 32.3127 15.3946 31.055 15.3186C30.9917 15.3133 30.9288 15.3048 30.8664 15.2933L30.822 15.2853C30.8912 15.0681 31.047 14.9436 31.2588 14.9436H31.2857L31.4953 14.953C31.9386 14.9733 32.3979 14.9936 32.7807 15.1557C33.5857 15.4981 34.2248 16.1308 34.6273 16.9923C34.6652 17.105 34.6781 17.2245 34.6652 17.3426ZM31.5186 20.3722C31.5958 20.2506 31.6642 20.1405 31.737 20.0312C32.165 19.3623 32.8288 18.9794 33.5617 18.9794C34.3158 18.9794 35.0043 19.4022 35.4025 20.1101C35.746 20.7211 35.7147 21.3871 35.3013 22.2695C34.9286 23.0658 34.2823 23.666 33.6549 24.2458C33.5588 24.3349 33.4627 24.4239 33.3681 24.5129C32.9882 24.8705 32.5893 25.2216 32.2035 25.5612C31.9852 25.7508 31.7726 25.9398 31.5594 26.1316C31.4764 26.204 31.3876 26.2764 31.2995 26.2764C31.2315 26.2714 31.1678 26.2412 31.1212 26.1917C30.849 25.9463 30.5673 25.7023 30.2958 25.4678C29.3671 24.6613 28.4077 23.8274 27.6478 22.8291C26.9979 21.9764 26.8472 21.1091 27.1958 20.2513C27.3462 19.8788 27.6055 19.5597 27.9401 19.3353C28.2748 19.1109 28.6694 18.9915 29.073 18.9924C29.3388 18.9922 29.6019 19.045 29.8467 19.1479C30.0915 19.2507 30.313 19.4014 30.4981 19.5911C30.6843 19.7886 30.8588 19.9968 31.0208 20.2144C31.1066 20.3244 31.1954 20.4388 31.2908 20.5561L31.3548 20.6342L31.5186 20.3722ZM39.239 28.1021C39.8308 26.9822 39.8483 25.7856 39.2914 24.5339C38.964 23.8101 38.4996 23.1557 37.9238 22.6062C37.819 22.5048 37.7637 22.347 37.7054 22.1798C37.6836 22.1183 37.661 22.0553 37.6326 21.9937L37.688 21.9445C37.7294 21.9575 37.7717 21.9684 37.8132 21.9793C37.9177 21.9975 38.017 22.038 38.1043 22.098C39.4727 23.2801 40.1088 24.4044 40.1663 25.7443C40.2115 26.7382 39.8992 27.5295 39.239 28.1021Z" fill="#F8F8F8"/>
<path d="M22.9342 6.24804C22.9756 6.61 23.0266 7.05882 23.1183 7.50185C23.4771 9.24647 24.2785 10.6965 25.4999 11.8127C26.0778 12.3404 26.7241 12.6191 27.3705 12.6191C28.0328 12.6191 28.6515 12.3296 29.1603 11.7758C29.6195 11.2706 29.9899 10.6921 30.2557 10.0645C30.8999 8.53487 30.9909 6.83731 30.5432 4.72277C30.2106 3.15045 29.6348 1.99002 28.7316 1.07356C28.0583 0.387294 27.2395 0.00941467 26.4257 0.00941467C25.3921 0.00941467 24.4437 0.609533 23.8243 1.65485C23.1787 2.74072 22.9072 3.96412 22.8883 5.86944V5.87958C22.9043 5.98309 22.9181 6.10833 22.9342 6.24804ZM28.6537 9.89943C28.7305 9.71636 28.7918 9.52725 28.8371 9.33406C29.3022 7.08054 28.955 5.01596 27.805 3.19823C27.6536 2.95861 27.4331 2.76388 27.2227 2.57349C27.1026 2.46708 26.9782 2.35632 26.8697 2.2405C26.796 2.1644 26.7422 2.07141 26.7132 1.96975C26.7656 1.88144 26.9243 1.76851 26.9956 1.76851H27.0022C27.3024 1.85729 27.5844 1.99847 27.8348 2.18548C28.5343 2.74433 28.8539 3.54932 29.1232 4.32535C29.7193 6.04969 29.7309 7.63288 29.1581 9.16539C29.0234 9.52734 28.8771 9.86903 28.5809 10.0956C28.6027 10.0305 28.6282 9.96531 28.6537 9.89943Z" fill="#F8F8F8"/>
<path d="M35.1746 12.562C35.9061 12.562 36.6492 12.2101 37.3232 11.5449C38.4397 10.4445 39.1589 9.09444 39.5221 7.4186C40.0177 5.13467 39.7266 3.20546 38.6319 1.52165C37.9943 0.54076 37.1136 0.00144958 36.1521 0.00144958C35.8844 0.00277181 35.6182 0.0420157 35.3616 0.117999C34.5391 0.356164 33.8666 0.880272 33.3061 1.71928C32.3556 3.14248 31.8875 4.86321 31.8752 6.97991C31.8395 8.63766 32.1372 9.92042 32.8119 11.0164C33.4262 12.0125 34.2633 12.562 35.1746 12.562ZM36.2664 1.87782C36.3472 1.81561 36.4473 1.78313 36.5495 1.78588C36.5817 1.7845 36.6138 1.78942 36.6441 1.80036C37.4186 2.11019 37.9353 2.75085 38.2243 3.7607C38.5421 4.89262 38.5566 6.08752 38.2665 7.22676C38.0588 8.09904 37.6842 8.92338 37.1631 9.65475C37.1076 9.72674 37.0444 9.79252 36.9746 9.85093C37.0175 9.74089 37.0612 9.63375 37.1041 9.52372C37.2417 9.17914 37.3843 8.82226 37.4913 8.46103C38.1013 6.4102 38.0176 4.77417 37.2286 3.31188C37.0233 2.9311 36.7147 2.60389 36.417 2.28755L36.3945 2.26366C36.2234 2.08196 36.1681 1.98785 36.2693 1.87782H36.2664Z" fill="#F8F8F8"/>
<path d="M38.6188 18.0854C39.065 19.0923 39.9639 19.7178 40.9647 19.7178C41.065 19.7177 41.1651 19.7114 41.2646 19.699C42.0205 19.6108 42.7275 19.282 43.28 18.7615C44.8085 17.3368 45.5364 15.5285 45.65 12.8978V12.8892V12.8812C45.6267 12.7574 45.6034 12.6105 45.5772 12.4548C45.5079 11.9762 45.4107 11.5019 45.286 11.0345C45.0509 10.2078 44.5582 9.57801 43.8565 9.21461C43.4584 9.01046 43.0168 8.90444 42.5689 8.9055C41.7523 8.91488 40.9706 9.23598 40.3853 9.80242C39.6662 10.4952 39.0846 11.3711 38.6574 12.4085C37.8386 14.3876 37.8298 16.298 38.6188 18.0854ZM43.9977 11.4182C44.3682 12.1674 44.4599 13.0202 44.2889 14.1003C44.08 15.4033 43.6396 16.3712 42.9059 17.1407C42.8768 17.1703 42.846 17.1981 42.8135 17.2239C42.8346 17.1834 42.8564 17.1436 42.8797 17.1045C43.6469 15.8145 43.93 14.3536 43.7211 12.7726C43.6163 11.9763 43.3033 11.3632 42.7654 10.8962C42.7044 10.817 42.6664 10.7226 42.6555 10.6233C42.7504 10.5487 42.8638 10.5009 42.9838 10.4851C42.9973 10.4848 43.0108 10.4865 43.0238 10.4901C43.4271 10.6103 43.7473 10.9143 43.9977 11.4211V11.4182Z" fill="#F8F8F8"/>
<path d="M17.1433 14.4188C17.4038 16.1916 18.0582 17.5721 19.1434 18.6399C19.8305 19.316 20.7396 19.7199 21.5752 19.7199C22.7194 19.7199 23.6445 18.996 24.1795 17.6749C24.7974 16.1511 24.7982 14.5266 24.1795 12.8472C23.6059 11.2835 22.782 10.1629 21.6618 9.42165C21.1633 9.07729 20.5735 8.88715 19.9666 8.8751C18.8654 8.8751 17.9286 9.56209 17.4671 10.7124C17.1578 11.4895 17.0069 12.32 17.0232 13.1556C17.0348 13.2873 17.045 13.4191 17.0552 13.5501C17.0785 13.836 17.101 14.1307 17.1433 14.4188ZM21.5483 11.8909C21.3481 11.6609 21.1205 11.456 20.8706 11.2806C20.7367 11.1786 20.5984 11.0736 20.4732 10.9621C20.4128 10.8999 20.366 10.826 20.3356 10.745C20.4434 10.6255 20.5627 10.5379 20.6181 10.5379H20.6239C20.9071 10.6037 21.1746 10.724 21.4114 10.8919C22.2652 11.5333 22.8344 12.4338 23.1517 13.6428C23.4691 14.8517 23.4269 15.8384 23.0236 16.7505C22.9497 16.9032 22.8615 17.0486 22.7602 17.1848C22.7267 17.2326 22.6932 17.2811 22.6604 17.3296L22.6524 17.3253C22.6735 17.2449 22.6961 17.1646 22.7179 17.0864C22.7845 16.8736 22.8332 16.6557 22.8635 16.4349C23.0455 14.7344 22.6037 13.2019 21.5483 11.8909Z" fill="#F8F8F8"/>
<path d="M27.265 32.5635L27.2235 32.6258L27.1914 32.6699C27.1696 32.6959 27.1526 32.7256 27.1412 32.7575L26.9993 33.2592C26.7904 33.9947 26.5749 34.7548 26.3792 35.5076C26.3435 35.6445 26.4337 35.8457 26.5364 35.942C26.6986 36.0782 26.8786 36.1922 27.0713 36.2808C28.3494 36.9369 29.7681 37.2759 31.2063 37.2689C31.5033 37.2689 31.8083 37.2551 32.1132 37.2284C33.4284 37.113 34.7097 36.751 35.8894 36.1613C36.4426 35.8848 36.4608 35.8421 36.2846 35.255C36.1572 34.8286 36.0357 34.3928 35.9207 33.9708C35.8479 33.7037 35.7715 33.4373 35.6958 33.1709C35.6623 33.0558 35.623 32.945 35.58 32.8285C35.5604 32.7742 35.5407 32.7191 35.5211 32.6627L35.4898 32.5715L35.4104 32.6272C34.4395 33.3055 32.9823 33.695 31.4123 33.695C29.8183 33.695 28.3305 33.2968 27.3312 32.6026L27.265 32.5635Z" fill="#F8F8F8"/>
<path d="M43.6527 35.1254C43.1192 34.5065 42.5434 33.855 41.892 33.2932C40.8235 32.3717 39.5323 32.1921 38.1646 32.0018C38.0074 31.9793 37.8465 31.9569 37.6857 31.9294C37.3844 31.7947 36.6994 31.5783 37.4317 32.7981C37.4724 32.9204 37.5125 33.0442 37.551 33.1651C37.7272 33.7203 37.9091 34.2944 38.2105 34.791C39.3583 36.6847 41.2136 37.6432 43.7255 37.6432H43.855C44.6746 37.633 45.5051 37.5295 46.3079 37.426C46.6318 37.3862 46.963 37.3442 47.2956 37.3094C47.4506 37.296 47.6003 37.2464 47.7323 37.1647C48.1494 36.9822 48.3146 36.8483 48.2855 36.7166C48.2455 36.5363 47.8328 36.5182 47.5868 36.524C47.501 36.512 47.4137 36.5154 47.3291 36.5341L47.2847 36.5414C47.0627 36.5764 46.8384 36.5943 46.6136 36.5949C45.4723 36.6007 44.5057 36.1179 43.6527 35.1254ZM40.1859 34.2741C41.5506 35.4432 42.9154 36.2091 44.358 36.6152C44.5172 36.6657 44.672 36.7289 44.8209 36.8042C44.8784 36.8317 44.9366 36.8592 44.9949 36.8852V36.9012L44.9345 36.9164C44.8636 36.9385 44.7902 36.9514 44.7161 36.9547H44.7066C43.9955 36.9345 43.2888 36.7426 42.5456 36.3691C41.3069 35.7453 40.2025 34.8871 39.2943 33.8427C39.2378 33.7732 39.189 33.698 39.1487 33.6182C39.1356 33.5951 39.1232 33.5719 39.1101 33.5459L39.1327 33.522C39.2338 33.5944 39.3372 33.6617 39.4376 33.729C39.697 33.8962 39.9463 34.0782 40.1844 34.2741H40.1859Z" fill="#F8F8F8"/>
<path d="M16.0304 36.6007C15.8059 36.6 15.5818 36.5821 15.36 36.5472L15.3156 36.5399C15.231 36.5212 15.1438 36.5178 15.058 36.5298C14.8112 36.524 14.3993 36.5421 14.3592 36.7223C14.3294 36.8541 14.4953 36.988 14.9124 37.1704C15.0444 37.2524 15.1941 37.302 15.3491 37.3152C15.6781 37.35 16.0129 37.392 16.3368 37.4318C17.1375 37.5324 17.9694 37.6359 18.789 37.6489H18.9193C21.4318 37.6489 23.2864 36.6905 24.4365 34.7997C24.7356 34.3009 24.9183 33.7217 25.0923 33.168C25.1308 33.0471 25.1701 32.9233 25.2109 32.8009C25.9439 31.5819 25.2589 31.7983 24.9576 31.9323C24.7967 31.9561 24.6359 31.9786 24.4779 32.0046C23.111 32.195 21.8191 32.3746 20.7513 33.2961C20.0999 33.8578 19.5241 34.5094 18.9906 35.1283C18.1375 36.1179 17.1688 36.6007 16.0304 36.6007ZM23.2035 33.7326C23.3039 33.6653 23.4065 33.5965 23.5077 33.5256L23.531 33.5495C23.5179 33.5719 23.5048 33.5951 23.4924 33.6219C23.4521 33.7016 23.4033 33.7768 23.3468 33.8463C22.4391 34.8909 21.3348 35.7491 20.0962 36.3727C19.3531 36.7462 18.6456 36.9381 17.9352 36.9583H17.925C17.8509 36.9549 17.7775 36.942 17.7067 36.92L17.647 36.9048V36.8888C17.7052 36.8628 17.7627 36.8353 17.8209 36.8078C17.9698 36.7323 18.1246 36.6692 18.2838 36.6188C19.7265 36.2127 21.0912 35.4468 22.4559 34.2777C22.694 34.0814 22.9436 33.8994 23.2035 33.7326Z" fill="#F8F8F8"/>
<path d="M28.832 31.4545C28.7443 31.525 28.6524 31.5903 28.5569 31.6499C28.4484 31.7163 28.345 31.7906 28.2476 31.8722C28.1449 31.9619 27.9783 32.2001 27.9761 32.2797V32.3181L27.9994 32.3398C28.1809 32.5246 28.3892 32.6812 28.6173 32.8046C28.6701 32.833 28.729 32.8484 28.7891 32.8495C28.9179 32.8495 29.0315 32.7734 29.1261 32.6229C29.235 32.4679 29.3645 32.3284 29.5111 32.2081C29.5526 32.1704 29.5948 32.1321 29.6363 32.093L29.8547 32.3825C29.5635 32.4035 29.3983 32.5758 29.3452 32.9066L29.3343 32.979L29.407 32.9906L29.5999 33.0246C29.7615 33.0529 29.9136 33.0797 30.0679 33.097H30.0891C30.1701 33.094 30.2484 33.067 30.314 33.0196L30.338 32.9913V32.9602C30.3234 32.7496 30.4523 32.6431 30.6015 32.5194L30.6218 32.5027C30.5933 32.5411 30.5689 32.5823 30.5491 32.6258C30.5186 32.686 30.5033 32.7527 30.5047 32.82C30.5061 32.8874 30.5241 32.9535 30.5571 33.0123C30.5937 33.0631 30.6424 33.104 30.6988 33.1316C30.7551 33.1591 30.8175 33.1723 30.8802 33.1701C31.0032 33.1738 31.1364 33.1759 31.2988 33.1759H31.6139H31.9429H32.007L32.0164 33.1144C32.0587 32.8961 32.0182 32.6699 31.9025 32.4797C31.7869 32.2894 31.6045 32.1485 31.3905 32.0843C31.3639 32.0768 31.3365 32.0732 31.3089 32.0734C31.1699 32.0734 30.9901 32.1596 30.8373 32.2812V32.2768C30.9443 32.1067 31.0025 31.9764 30.9669 31.8541C30.937 31.7513 30.8475 31.6724 30.659 31.5819C30.3721 31.4494 30.077 31.3355 29.7753 31.2409C29.4456 31.1331 29.1276 31.2047 28.832 31.4545Z" fill="#F8F8F8"/>
<path d="M33.9948 32.8719C34.0715 32.8706 34.1467 32.8499 34.2132 32.8118C34.4259 32.6967 34.611 32.5368 34.7554 32.3434C34.81 32.2711 34.6957 32.1017 34.4155 31.8454C34.3349 31.7813 34.2424 31.7336 34.1433 31.705L34.0705 31.6774C33.9562 31.6318 33.8376 31.592 33.7226 31.5529C33.4847 31.4836 33.256 31.3864 33.0413 31.2634C32.8602 31.1426 32.6486 31.0749 32.4306 31.0679C32.1206 31.0679 31.8483 31.2351 31.6693 31.5392C31.6234 31.6159 31.571 31.7744 31.6263 31.87C31.7959 32.1646 32.0128 32.4651 32.3338 32.4651C32.502 32.4651 32.6774 32.3825 32.8695 32.2124C32.9023 32.1827 32.9365 32.1552 32.9853 32.114L33.0464 32.064C33.0995 32.114 33.1541 32.1617 33.2065 32.2088C33.3557 32.3301 33.4899 32.4686 33.6061 32.6214C33.7167 32.7872 33.8485 32.8719 33.9948 32.8719Z" fill="#F8F8F8"/>
<path d="M31.1823 30.1247H31.1685C30.7878 30.1247 30.4406 30.4251 30.4319 30.7682C30.4232 31.1114 30.8482 31.5066 31.2325 31.5233H31.2478C31.539 31.5233 31.8592 31.1656 31.8796 30.8138C31.8836 30.73 31.8705 30.6462 31.841 30.5675C31.8114 30.4889 31.7661 30.417 31.7078 30.3563C31.6402 30.2848 31.5588 30.2275 31.4686 30.1877C31.3783 30.148 31.281 30.1265 31.1823 30.1247Z" fill="#F8F8F8"/>
<path d="M32.8498 32.3652C32.7662 32.3661 32.6836 32.3823 32.6059 32.4129C32.3032 32.5302 32.2064 32.7814 32.3192 33.1586L32.3388 33.2237L33.5463 32.953L33.5085 32.8719C33.3556 32.5454 33.1213 32.3652 32.8498 32.3652Z" fill="#F8F8F8"/>
<path d="M9.7854 55.0502L9.96518 54.8664C9.99877 54.9301 10.0493 54.9835 10.1113 55.0206C10.1733 55.0578 10.2444 55.0773 10.3167 55.077C10.3671 55.0765 10.4167 55.065 10.4621 55.0433C10.5075 55.0217 10.5475 54.9905 10.5795 54.9518C10.6612 54.8576 10.7154 54.7429 10.736 54.6202L10.974 53.4301C10.9445 53.4245 10.9145 53.4211 10.8845 53.42C10.8197 53.4183 10.7553 53.4303 10.6956 53.4553C10.6358 53.4802 10.5821 53.5176 10.538 53.5648C10.4453 53.6641 10.3956 53.7956 10.3997 53.9311L10.1552 54.0505C10.1589 53.9449 10.186 53.8414 10.2346 53.7475C10.2831 53.6535 10.3519 53.5713 10.4361 53.5069C10.6055 53.3775 10.8335 53.3129 11.1203 53.3129H11.2222C11.3775 53.7432 11.4913 54.1873 11.5621 54.6391L12.3882 53.3129L12.6583 53.281L12.5622 53.6835L12.3569 54.7071C12.3417 54.7786 12.3329 54.8513 12.3307 54.9243C12.3307 54.9967 12.3751 55.0343 12.4654 55.0343C12.5253 55.0333 12.5851 55.0287 12.6444 55.0206L12.6277 55.1009L12.0083 55.2218L12.3344 53.5908L11.4733 54.9663L11.3438 54.9858V54.9496C11.3438 54.6234 11.2634 54.218 11.1028 53.7334L10.9995 54.2445C10.8738 54.8753 10.5991 55.1904 10.1755 55.1899C10.0328 55.1915 9.89435 55.1419 9.7854 55.0502Z" fill="url(#paint0_linear_190_616)"/>
<path d="M13.9123 54.4856H13.889C13.8071 54.6759 13.6912 54.8498 13.5469 54.9988C13.4137 55.1306 13.2885 55.1972 13.172 55.1972C12.9954 55.1972 12.9069 55.0869 12.9064 54.8664C12.9064 54.6251 13.0034 54.3871 13.1975 54.1526C13.2842 54.0397 13.3959 53.9484 13.5239 53.8856C13.6519 53.8228 13.7928 53.7903 13.9356 53.7906C14.0557 53.7906 14.1809 53.7957 14.3119 53.8058L14.2216 54.1765L14.1015 54.7947C14.0871 54.8566 14.0773 54.9195 14.0724 54.9829C14.0724 55.0358 14.0972 55.0618 14.1452 55.0618C14.2287 55.0618 14.3538 54.9699 14.5208 54.786L14.4975 54.9026C14.3136 55.0985 14.1483 55.1967 14.0018 55.1972C13.8803 55.1972 13.8191 55.1342 13.8191 55.0075C13.8232 54.9359 13.8332 54.8647 13.849 54.7947L13.9123 54.4856ZM14.0134 53.9846C13.9153 53.9386 13.8083 53.9139 13.6997 53.9122C13.5469 53.9122 13.4256 54.0088 13.3358 54.2018C13.2376 54.3918 13.1824 54.6008 13.1742 54.8142C13.1742 54.9453 13.2128 55.0111 13.29 55.0111C13.3671 55.0111 13.4661 54.9387 13.6015 54.7846C13.7415 54.6278 13.8616 54.4545 13.9589 54.2684L14.0134 53.9846Z" fill="url(#paint1_linear_190_616)"/>
<path d="M15.6374 54.4856H15.6148C15.532 54.6758 15.4154 54.8497 15.2705 54.9988C15.1381 55.1315 15.0138 55.1977 14.8979 55.1972C14.7193 55.1972 14.6303 55.0864 14.6307 54.8649C14.635 54.6994 14.6797 54.5374 14.761 54.3929C14.8442 54.2336 14.9588 54.0925 15.098 53.9781C15.1792 53.9099 15.2736 53.8589 15.3753 53.8283C15.5071 53.7987 15.6421 53.7858 15.7771 53.7899C15.8129 53.6578 15.8649 53.5306 15.9322 53.4113C15.9924 53.317 16.0691 53.2342 16.1585 53.1666C16.3141 53.0404 16.5087 52.9714 16.7095 52.9712C16.7858 52.9704 16.8618 52.9791 16.9359 52.9972L16.7634 53.1753C16.6837 53.1368 16.5971 53.1146 16.5086 53.1102C16.4498 53.1066 16.3911 53.1181 16.338 53.1434C16.2849 53.1688 16.2391 53.2071 16.2051 53.2549C16.1377 53.3515 16.0768 53.5339 16.0224 53.8022L15.8252 54.794C15.8103 54.8549 15.8001 54.9168 15.7946 54.9793C15.7946 55.0336 15.8193 55.0611 15.8674 55.0611C15.9518 55.0611 16.077 54.9691 16.2444 54.7853L16.2204 54.9018C16.037 55.0978 15.8722 55.196 15.7262 55.1965C15.6046 55.1965 15.5435 55.1335 15.5435 55.0068C15.5477 54.9351 15.5579 54.8639 15.574 54.794L15.6374 54.4856ZM15.7378 53.9846C15.6395 53.9382 15.5322 53.9135 15.4234 53.9122C15.271 53.9122 15.1497 54.0088 15.0595 54.2018C14.9607 54.3916 14.9053 54.6007 14.8971 54.8142C14.8971 54.9453 14.9357 55.0111 15.0143 55.0111C15.0929 55.0111 15.1897 54.9351 15.3258 54.7838C15.4657 54.6268 15.5855 54.4532 15.6825 54.267L15.7378 53.9846Z" fill="url(#paint2_linear_190_616)"/>
<path d="M17.4774 54.8222L17.4585 54.9192C17.1916 55.1045 16.964 55.1972 16.7757 55.1972C16.721 55.1991 16.6664 55.189 16.6161 55.1675C16.5658 55.1459 16.5208 55.1136 16.4846 55.0727C16.408 54.9831 16.3682 54.868 16.3732 54.7505C16.3781 54.5031 16.4751 54.2664 16.6454 54.086C16.8269 53.879 17.021 53.7754 17.2277 53.7754C17.2614 53.7738 17.295 53.7795 17.3263 53.792C17.3576 53.8045 17.3858 53.8235 17.409 53.8478C17.4563 53.9018 17.481 53.9717 17.4781 54.0433C17.4781 54.2035 17.3959 54.341 17.2314 54.4559C17.058 54.5738 16.8517 54.6343 16.6418 54.6289V54.6854C16.6418 54.9286 16.7321 55.0473 16.9118 55.0473C17.0652 55.0512 17.2537 54.9762 17.4774 54.8222ZM16.644 54.5544C16.8018 54.5497 16.9548 54.4994 17.0843 54.4096C17.1346 54.3736 17.1753 54.326 17.2029 54.2709C17.2306 54.2158 17.2443 54.1548 17.243 54.0932C17.243 53.9658 17.1964 53.9021 17.1033 53.9021C17.0101 53.9021 16.9131 53.9687 16.8121 54.1019C16.7175 54.2356 16.6596 54.3916 16.644 54.5544Z" fill="url(#paint3_linear_190_616)"/>
<path d="M19.1238 55.1972C19.1282 55.1147 19.1296 55.0321 19.1296 54.9503C19.1296 54.5763 19.1095 54.3167 19.0692 54.1714C19.029 54.0261 18.9562 53.9538 18.8509 53.9542C18.7538 53.9542 18.6393 54.0563 18.5073 54.2605L18.5401 54.0896C18.6866 53.8792 18.8298 53.774 18.9695 53.774C19.2281 53.774 19.3572 54.1118 19.3567 54.7875V54.9156C19.6411 54.5112 19.8034 54.1458 19.8437 53.8196L19.9609 53.7914C20.0732 54.1453 20.1311 54.5141 20.1326 54.8852C20.2533 54.73 20.3579 54.5632 20.4449 54.3871C20.5144 54.2647 20.558 54.1295 20.573 53.9897C20.5697 53.9251 20.5507 53.8623 20.5177 53.8066L20.8001 53.7914C20.8131 53.8256 20.8203 53.8619 20.8212 53.8985C20.8065 54.0064 20.7669 54.1095 20.7055 54.1996C20.5891 54.3916 20.462 54.577 20.3248 54.7549L20.2571 54.8468L20.0227 55.1675L19.8954 55.1986L19.899 55.0466C19.9038 54.7668 19.8826 54.4872 19.8357 54.2112C19.6805 54.5508 19.4869 54.8717 19.2585 55.1675L19.1238 55.1972Z" fill="url(#paint4_linear_190_616)"/>
<path d="M21.9275 54.7875L21.905 54.904C21.7208 55.1002 21.5563 55.1986 21.41 55.1986C21.2892 55.1986 21.2288 55.1357 21.2288 55.009C21.2324 54.9383 21.2419 54.8681 21.2572 54.799L21.3445 54.3647C21.3622 54.2834 21.3739 54.2009 21.3794 54.1178C21.3794 54.0455 21.3525 54.0122 21.2979 54.0122C21.2288 54.0184 21.1606 54.0328 21.0948 54.0549L21.1101 53.9789L21.7259 53.7783L21.6306 54.1787L21.5068 54.7976C21.4929 54.8586 21.4832 54.9206 21.4777 54.9829C21.4777 55.0372 21.5025 55.0647 21.5505 55.0647C21.6356 55.0618 21.7601 54.9699 21.9275 54.7875ZM21.4653 53.5568L21.5498 53.386L21.905 53.1558L21.7965 53.386L21.4653 53.5568Z" fill="url(#paint5_linear_190_616)"/>
<path d="M22.3562 53.8978H22.0651L22.1524 53.8051H22.3708L22.4435 53.4511L22.7049 53.3881L22.6211 53.8051H23.0964L22.9945 53.9188C22.8979 53.9073 22.8007 53.9012 22.7034 53.9007H22.6008L22.4297 54.7592C22.4158 54.8206 22.407 54.8831 22.4035 54.946C22.4035 55.0119 22.4326 55.0444 22.4916 55.0444C22.5818 55.0444 22.7063 54.9778 22.8628 54.8439L22.8402 54.9597C22.6772 55.1195 22.5207 55.1996 22.3708 55.2001C22.2252 55.2001 22.156 55.1212 22.156 54.9648C22.1584 54.8895 22.1679 54.8146 22.1844 54.7411L22.3562 53.8978Z" fill="url(#paint6_linear_190_616)"/>
<path d="M23.1758 55.1805L23.2726 54.7947L23.4451 53.926C23.4865 53.6621 23.6056 53.4163 23.7872 53.2195C23.8662 53.1379 23.9613 53.0735 24.0665 53.0301C24.1717 52.9868 24.2847 52.9655 24.3986 52.9675C24.4751 52.9668 24.5514 52.9755 24.6257 52.9936L24.4532 53.1731C24.3746 53.1335 24.2886 53.1108 24.2006 53.1065C24.1422 53.1029 24.0839 53.1143 24.0312 53.1397C23.9785 53.165 23.9333 53.2035 23.9 53.2513C23.833 53.3478 23.7726 53.5315 23.7188 53.8022L23.5827 54.4827H23.603C23.6909 54.2917 23.811 54.1171 23.9582 53.9665C24.0907 53.8367 24.2137 53.7718 24.3273 53.7718C24.4655 53.7718 24.5347 53.8478 24.5347 53.9998C24.5334 54.0604 24.5263 54.1208 24.5136 54.1801L24.3913 54.7911C24.3767 54.853 24.367 54.9159 24.3622 54.9793C24.3622 55.0321 24.3869 55.0582 24.435 55.0582C24.5194 55.0582 24.6451 54.9663 24.812 54.7824L24.7887 54.8989C24.6043 55.0949 24.4391 55.1931 24.293 55.1936C24.1722 55.1936 24.1111 55.1306 24.1111 55.0046C24.1151 54.933 24.1249 54.8619 24.1402 54.7918L24.2639 54.1786C24.272 54.1391 24.2766 54.0988 24.2778 54.0585C24.2778 53.9904 24.2523 53.9571 24.205 53.9571C24.0458 53.9571 23.8233 54.2098 23.5375 54.7151L23.4465 55.1624L23.1758 55.1805Z" fill="url(#paint7_linear_190_616)"/>
<path d="M26.5407 54.7802L26.5181 54.8953C26.3197 55.0966 26.1498 55.1972 26.0086 55.1972C25.8893 55.1972 25.8296 55.1335 25.8296 55.0053C25.8318 54.9342 25.8405 54.8635 25.8558 54.794L26.0283 53.9296C26.07 53.6656 26.1893 53.4198 26.3711 53.2231C26.4503 53.1415 26.5455 53.077 26.6508 53.0337C26.7561 52.9903 26.8693 52.9691 26.9832 52.9712C27.0595 52.9703 27.1356 52.979 27.2096 52.9972L27.0371 53.1768C26.9589 53.137 26.873 53.1143 26.7853 53.1102C26.7268 53.1065 26.6683 53.1179 26.6155 53.1433C26.5628 53.1687 26.5174 53.2071 26.4839 53.2549C26.4162 53.3512 26.3558 53.5351 26.302 53.8044L26.104 54.794C26.0898 54.8559 26.08 54.9188 26.0749 54.9822C26.0749 55.035 26.0996 55.0611 26.1477 55.0611C26.1957 55.0611 26.3122 54.9887 26.4737 54.8381C26.4861 54.8273 26.5087 54.8077 26.5407 54.7802Z" fill="url(#paint8_linear_190_616)"/>
<path d="M27.0415 55.1972C26.9888 55.198 26.9366 55.1868 26.8889 55.1645C26.8412 55.1421 26.7993 55.1092 26.7663 55.0683C26.6914 54.9787 26.6523 54.8648 26.6564 54.7484C26.6596 54.4996 26.7576 54.2612 26.9308 54.0816C27.1123 53.8765 27.3117 53.774 27.5291 53.774C27.584 53.7721 27.6385 53.7823 27.6889 53.804C27.7392 53.8256 27.7841 53.8582 27.8203 53.8992C27.8978 53.9873 27.9384 54.1015 27.9338 54.2185C27.9328 54.4705 27.8346 54.7125 27.6594 54.8946C27.4741 55.0963 27.2681 55.1972 27.0415 55.1972ZM27.187 55.0879C27.3113 55.0879 27.4207 55.0085 27.5153 54.8497C27.6124 54.6811 27.6615 54.4894 27.6572 54.2952C27.6572 54.0187 27.5723 53.8804 27.4025 53.8804C27.2826 53.8804 27.1747 53.9624 27.0786 54.1265C26.981 54.2951 26.9307 54.4866 26.933 54.681C26.9323 54.9525 27.016 55.0879 27.1849 55.0879H27.187Z" fill="url(#paint9_linear_190_616)"/>
<path d="M28.6864 55.1972L28.693 55.0271C28.7012 54.7639 28.6705 54.501 28.602 54.2467C28.5416 54.0556 28.4564 53.9607 28.3567 53.9607C28.257 53.9607 28.1383 54.0606 28.024 54.2612L28.0604 54.0758C28.2128 53.8756 28.3545 53.7754 28.4855 53.7754C28.7767 53.7754 28.9222 54.1408 28.9222 54.8714V54.9438L29.0256 54.82C29.3313 54.4523 29.4841 54.1849 29.4841 54.0179C29.4844 53.9404 29.4547 53.8658 29.4012 53.8095L29.6705 53.779C29.7073 53.8272 29.7288 53.8852 29.7323 53.9455C29.7272 54.031 29.6974 54.1132 29.6465 54.1823C29.53 54.3438 29.4049 54.4989 29.2716 54.647L28.8211 55.1697L28.6864 55.1972Z" fill="url(#paint10_linear_190_616)"/>
<path d="M31.0797 54.8222L31.0608 54.9192C30.7939 55.1045 30.5663 55.1972 30.378 55.1972C30.3233 55.1991 30.2687 55.189 30.2184 55.1675C30.168 55.1459 30.1231 55.1136 30.0869 55.0727C30.0103 54.9831 29.9705 54.868 29.9755 54.7505C29.9804 54.5031 30.0774 54.2664 30.2477 54.086C30.4292 53.879 30.6233 53.7754 30.83 53.7754C30.8637 53.7738 30.8973 53.7795 30.9286 53.792C30.9599 53.8045 30.9881 53.8235 31.0113 53.8478C31.0586 53.9018 31.0833 53.9717 31.0804 54.0433C31.0804 54.2035 30.9982 54.341 30.8337 54.4559C30.6603 54.5738 30.454 54.6343 30.2441 54.6289V54.6854C30.2441 54.9286 30.3344 55.0473 30.5141 55.0473C30.668 55.0512 30.8565 54.9762 31.0797 54.8222ZM30.2463 54.5544C30.4041 54.5497 30.5571 54.4994 30.6866 54.4096C30.7369 54.3736 30.7776 54.326 30.8052 54.2709C30.8328 54.2158 30.8466 54.1548 30.8453 54.0932C30.8453 53.9658 30.7987 53.9021 30.7056 53.9021C30.6124 53.9021 30.5153 53.9687 30.4144 54.1019C30.3198 54.2356 30.2619 54.3916 30.2463 54.5544Z" fill="url(#paint11_linear_190_616)"/>
<path d="M31.4399 55.9841L31.6205 55.7973C31.6987 55.8294 31.7825 55.8459 31.8672 55.8458C31.9198 55.8488 31.9723 55.8393 32.0206 55.8181C32.0688 55.797 32.1112 55.7648 32.1445 55.7242C32.2249 55.6039 32.2748 55.466 32.2901 55.3224L32.5317 53.8978H32.2501L32.3381 53.8051H32.5507L32.555 53.7892C32.5947 53.5605 32.7115 53.3522 32.8862 53.1985C33.0509 53.05 33.2659 52.9689 33.4881 52.9712C33.5564 52.9708 33.6245 52.9779 33.6912 52.9922L33.5107 53.1825C33.4392 53.1361 33.3559 53.111 33.2705 53.1102C33.2183 53.106 33.1658 53.1138 33.1171 53.133C33.0684 53.1522 33.0247 53.1823 32.9896 53.2209C32.9274 53.2947 32.877 53.4301 32.8382 53.627L32.8018 53.8051H33.2727L33.1715 53.9188C33.065 53.9064 32.9578 53.9001 32.8505 53.8999H32.785L32.6009 54.9778C32.5456 55.305 32.4352 55.5574 32.2697 55.735C32.1915 55.8216 32.0954 55.8903 31.988 55.9364C31.8805 55.9825 31.7643 56.0049 31.6474 56.0022C31.5779 56.0013 31.5085 55.9953 31.4399 55.9841Z" fill="url(#paint12_linear_190_616)"/>
<path d="M33.6694 55.1972C33.6167 55.198 33.5645 55.1868 33.5168 55.1645C33.4691 55.1421 33.4272 55.1092 33.3943 55.0683C33.3193 54.9787 33.2802 54.8648 33.2844 54.7484C33.2875 54.4996 33.3856 54.2612 33.5588 54.0816C33.7412 53.8775 33.9406 53.7754 34.1571 53.7754C34.2119 53.7735 34.2665 53.7838 34.3168 53.8054C34.3672 53.8271 34.4121 53.8596 34.4482 53.9007C34.5257 53.9887 34.5663 54.103 34.5618 54.2199C34.5607 54.4719 34.4625 54.7139 34.2874 54.896C34.102 55.0968 33.896 55.1972 33.6694 55.1972ZM33.815 55.0879C33.9397 55.0879 34.0491 55.0085 34.1432 54.8497C34.2403 54.6811 34.2894 54.4894 34.2852 54.2952C34.2852 54.0187 34.2002 53.8804 34.0304 53.8804C33.9106 53.8804 33.8026 53.9624 33.7065 54.1265C33.6089 54.2951 33.5587 54.4866 33.5609 54.681C33.5605 54.9527 33.6444 55.0884 33.8128 55.0879H33.815Z" fill="url(#paint13_linear_190_616)"/>
<path d="M34.8885 55.1805L34.9817 54.7954L35.104 54.183C35.1158 54.1305 35.1221 54.0768 35.1229 54.023C35.1229 53.9506 35.0981 53.9159 35.0501 53.9159C34.9613 53.9159 34.8342 54.01 34.6687 54.1982L34.6913 54.0867C34.8854 53.8792 35.0537 53.7754 35.1964 53.7754C35.3172 53.7754 35.3776 53.8442 35.3776 53.9818C35.377 54.0499 35.3694 54.1178 35.3551 54.1844L35.2947 54.4863H35.3114C35.3979 54.2958 35.518 54.1223 35.6659 53.9738C35.7983 53.8406 35.9223 53.774 36.0378 53.774C36.0927 53.7732 36.1469 53.7866 36.195 53.8131L36.0276 54.0397C35.9911 54.0118 35.9475 53.9947 35.9017 53.9904C35.7382 53.9904 35.5198 54.2296 35.2466 54.7078L35.1542 55.1646L34.8885 55.1805Z" fill="url(#paint14_linear_190_616)"/>
<path d="M38.1988 54.8222L38.1799 54.9192C37.913 55.1045 37.6854 55.1972 37.4972 55.1972C37.4424 55.1992 37.3879 55.1891 37.3375 55.1675C37.2871 55.146 37.2422 55.1136 37.206 55.0727C37.1294 54.9831 37.0897 54.868 37.0947 54.7505C37.0996 54.5031 37.1966 54.2664 37.3669 54.086C37.5484 53.879 37.7425 53.7754 37.9492 53.7754C37.9828 53.7738 38.0164 53.7795 38.0477 53.792C38.079 53.8045 38.1072 53.8235 38.1304 53.8478C38.179 53.9012 38.2051 53.9712 38.2032 54.0433C38.2032 54.2035 38.1209 54.341 37.9564 54.4559C37.7831 54.5738 37.5768 54.6343 37.3669 54.6289V54.6854C37.3669 54.9286 37.4571 55.0473 37.6369 55.0473C37.7878 55.0512 37.9751 54.9762 38.1988 54.8222ZM37.3654 54.5544C37.522 54.549 37.6736 54.4987 37.8021 54.4096C37.8524 54.3736 37.8931 54.326 37.9207 54.2709C37.9483 54.2158 37.9621 54.1548 37.9608 54.0932C37.9608 53.9658 37.9142 53.9021 37.8211 53.9021C37.7279 53.9021 37.6308 53.9687 37.5299 54.1019C37.4364 54.2359 37.3796 54.3919 37.3654 54.5544Z" fill="url(#paint15_linear_190_616)"/>
<path d="M39.0199 55.1972L39.0264 55.0271C39.0351 54.7639 39.0044 54.5009 38.9355 54.2467C38.8751 54.0556 38.7899 53.9607 38.6902 53.9607C38.5905 53.9607 38.4718 54.0606 38.3575 54.2612L38.3939 54.0758C38.5458 53.8756 38.6875 53.7754 38.819 53.7754C39.1102 53.7754 39.2557 54.1408 39.2557 54.8714V54.9438L39.3584 54.8164C39.6641 54.4487 39.8171 54.1813 39.8176 54.0143C39.8179 53.9368 39.7882 53.8622 39.7347 53.8058L40.004 53.7754C40.0405 53.8237 40.062 53.8816 40.0658 53.9419C40.0604 54.0275 40.0303 54.1096 39.9792 54.1786C39.8631 54.3402 39.7382 54.4953 39.6051 54.6434L39.1546 55.1661L39.0199 55.1972Z" fill="url(#paint16_linear_190_616)"/>
<path d="M41.4131 54.8222L41.3941 54.9192C41.1277 55.1045 40.9004 55.1972 40.7121 55.1972C40.6574 55.1992 40.6028 55.1891 40.5525 55.1675C40.5021 55.146 40.4572 55.1136 40.421 55.0727C40.3444 54.9831 40.3046 54.868 40.3096 54.7505C40.3142 54.5032 40.411 54.2664 40.5811 54.086C40.7626 53.8789 40.9567 53.7754 41.1634 53.7754C41.1971 53.7738 41.2307 53.7794 41.262 53.7919C41.2933 53.8044 41.3215 53.8235 41.3446 53.8478C41.3936 53.901 41.4197 53.9712 41.4174 54.0433C41.4174 54.2035 41.3352 54.341 41.1707 54.4559C40.9973 54.5738 40.791 54.6343 40.5811 54.6289V54.6854C40.5811 54.9286 40.6706 55.0473 40.8504 55.0473C41.0004 55.0531 41.1903 54.9764 41.4131 54.8222ZM40.5797 54.5544C40.7375 54.5497 40.8905 54.4994 41.02 54.4096C41.0703 54.3736 41.1111 54.326 41.1389 54.2709C41.1667 54.2158 41.1806 54.1548 41.1794 54.0932C41.1794 53.9658 41.1328 53.9021 41.0389 53.9021C40.945 53.9021 40.841 53.9687 40.7478 54.1019C40.6532 54.2356 40.5952 54.3916 40.5797 54.5544Z" fill="url(#paint17_linear_190_616)"/>
<path d="M41.809 55.1805L41.9022 54.7954L42.0245 54.183C42.036 54.1304 42.0423 54.0768 42.0434 54.023C42.0434 53.9506 42.0179 53.9159 41.9706 53.9159C41.8818 53.9159 41.7547 54.01 41.5892 54.1982L41.6118 54.0867C41.8059 53.8792 41.9743 53.7754 42.1169 53.7754C42.2378 53.7754 42.2982 53.8442 42.2982 53.9817C42.2972 54.0499 42.2896 54.1177 42.2756 54.1844L42.2152 54.4863H42.2312C42.318 54.296 42.438 54.1224 42.5857 53.9738C42.7225 53.8413 42.847 53.7754 42.9605 53.7754C43.0155 53.7744 43.0697 53.7879 43.1177 53.8145L42.9503 54.0411C42.9138 54.0132 42.8702 53.9962 42.8244 53.9919C42.6609 53.9919 42.4425 54.231 42.1693 54.7093L42.0776 55.166L41.809 55.1805Z" fill="url(#paint18_linear_190_616)"/>
<path d="M43.2161 55.9638L43.39 55.7886C43.4706 55.8363 43.5627 55.8614 43.6564 55.861C43.7086 55.8636 43.7606 55.8537 43.8081 55.8322C43.8555 55.8106 43.8972 55.7781 43.9294 55.7372C44.0174 55.5998 44.0775 55.4466 44.1062 55.2862L44.302 54.4856H44.2853C44.2029 54.6587 44.1024 54.8228 43.9854 54.9749C43.8842 55.1024 43.8034 55.1661 43.7452 55.1661C43.7147 55.1661 43.6849 55.1567 43.6601 55.139C43.6353 55.1213 43.6167 55.0964 43.6069 55.0676C43.5644 54.951 43.5374 54.8293 43.5269 54.7057L43.4664 54.2185C43.4439 54.0382 43.406 53.9477 43.3522 53.9477C43.2983 53.9477 43.2153 54.0201 43.0989 54.1649L43.1244 54.0375C43.2559 53.8637 43.3806 53.7769 43.4985 53.7769C43.5292 53.7746 43.5598 53.7821 43.5859 53.7982C43.6121 53.8143 43.6324 53.8383 43.644 53.8666C43.6868 53.9894 43.7137 54.1172 43.7241 54.2467L43.7772 54.6651C43.7971 54.8142 43.8292 54.8888 43.8733 54.8888C43.925 54.8888 43.9985 54.8164 44.0917 54.6716C44.1087 54.6451 44.2021 54.4902 44.3719 54.2069L44.468 53.8058L44.7366 53.7906L44.6245 54.1815L44.4061 55.0727C44.3309 55.3738 44.2118 55.6038 44.0487 55.7626C43.97 55.8403 43.8763 55.9014 43.7732 55.9423C43.6702 55.9833 43.5599 56.0031 43.449 56.0007C43.3697 56.0025 43.2908 55.99 43.2161 55.9638Z" fill="url(#paint19_linear_190_616)"/>
<path d="M45.016 55.9776L45.1856 55.798C45.2685 55.8394 45.36 55.8609 45.4527 55.861C45.6667 55.861 45.8091 55.6846 45.88 55.3318L46.0736 54.3603C46.0912 54.279 46.1026 54.1965 46.1078 54.1135C46.1078 54.0411 46.0809 54.0085 46.027 54.0085C45.9575 54.0147 45.8891 54.0293 45.8232 54.052L45.8392 53.9759L46.4542 53.7754L46.3582 54.1801L46.297 54.4856H46.3181C46.4004 54.2952 46.5169 54.1213 46.6617 53.9723C46.7949 53.8413 46.9193 53.7754 47.0365 53.7754C47.2151 53.7754 47.3044 53.8857 47.3044 54.1063C47.299 54.3796 47.1907 54.641 47.0009 54.8388C46.7961 55.0691 46.5792 55.1844 46.3502 55.1849C46.3269 55.1849 46.2774 55.1798 46.2046 55.1704L46.1616 55.1661C46.1138 55.4029 45.9933 55.6192 45.8166 55.785C45.649 55.9309 45.4322 56.0085 45.2096 56.0022C45.1443 56.0012 45.0794 55.9929 45.016 55.9776ZM46.1959 54.9894C46.2947 55.0351 46.402 55.0598 46.511 55.0618C46.6629 55.0618 46.7842 54.9653 46.875 54.7722C46.9738 54.5822 47.0292 54.3729 47.0373 54.1591C47.0373 54.0281 46.998 53.9629 46.9201 53.9629C46.8422 53.9629 46.7454 54.0353 46.61 54.1888C46.4702 54.3469 46.3498 54.5208 46.2512 54.7071L46.1959 54.9894Z" fill="url(#paint20_linear_190_616)"/>
<path d="M48.5025 54.4856H48.4799C48.3981 54.6759 48.2822 54.8498 48.1378 54.9988C48.0046 55.1306 47.8794 55.1972 47.763 55.1972C47.5854 55.1972 47.4973 55.0872 47.4973 54.8664C47.4973 54.6251 47.5944 54.3871 47.7885 54.1526C47.8751 54.0397 47.9868 53.9484 48.1148 53.8856C48.2429 53.8228 48.3838 53.7903 48.5265 53.7906C48.6466 53.7906 48.7725 53.7957 48.9035 53.8058L48.8126 54.1765L48.6903 54.7954C48.6763 54.8574 48.6668 54.9203 48.6619 54.9836C48.6619 55.0365 48.6866 55.0625 48.7347 55.0625C48.8186 55.0625 48.9436 54.9706 49.1095 54.7867L49.087 54.9033C48.9026 55.0992 48.7373 55.1974 48.5913 55.1979C48.469 55.1979 48.4086 55.1349 48.4086 55.0082C48.4123 54.9366 48.4223 54.8654 48.4384 54.7954L48.5025 54.4856ZM48.6044 53.9846C48.5062 53.9386 48.3992 53.914 48.2907 53.9122C48.1378 53.9122 48.0165 54.0088 47.9267 54.2018C47.8291 54.3919 47.7742 54.6009 47.7659 54.8142C47.7659 54.9453 47.8045 55.0111 47.8816 55.0111C47.9588 55.0111 48.0578 54.9387 48.1931 54.7846C48.333 54.6278 48.4528 54.4544 48.5498 54.2684L48.6044 53.9846Z" fill="url(#paint21_linear_190_616)"/>
<path d="M49.734 55.1972C49.7384 55.1147 49.7406 55.0321 49.7406 54.9503C49.7406 54.5763 49.7202 54.3167 49.6795 54.1714C49.6387 54.0266 49.5666 53.9542 49.4611 53.9542C49.3556 53.9542 49.2486 54.0563 49.1176 54.2605L49.1503 54.0896C49.2959 53.8811 49.4415 53.7769 49.587 53.7769C49.8447 53.7769 49.9738 54.1147 49.9742 54.7904V54.9185C50.2591 54.5141 50.4216 54.1487 50.4619 53.8225L50.5791 53.7943C50.6912 54.1482 50.7489 54.517 50.7501 54.8881C50.8713 54.7333 50.976 54.5664 51.0624 54.39C51.1323 54.2678 51.1762 54.1325 51.1912 53.9926C51.1876 53.9281 51.1686 53.8653 51.1359 53.8095L51.4176 53.7943C51.4312 53.8284 51.4386 53.8647 51.4394 53.9014C51.4248 54.0094 51.3849 54.1126 51.323 54.2025C51.2066 54.3944 51.0798 54.5798 50.943 54.7578L50.8746 54.8497L50.641 55.1704L50.5136 55.2015L50.5172 55.0495C50.5222 54.7697 50.5008 54.49 50.4532 54.2141C50.2986 54.554 50.1049 54.8749 49.876 55.1704L49.734 55.1972Z" fill="url(#paint22_linear_190_616)"/>
<path d="M3.58913 37.7242C3.99855 37.7224 4.40621 37.7775 4.8003 37.8878C5.18315 37.9964 5.54708 38.1171 5.89209 38.2498C6.23709 38.3825 6.57094 38.5032 6.89362 38.6118C7.18927 38.7158 7.50007 38.7708 7.81364 38.7746C8.09314 38.7746 8.29063 38.7476 8.40612 38.6936C8.52112 38.6385 8.55169 38.4728 8.48764 38.1948C8.61142 38.2053 8.73104 38.2444 8.83703 38.3088C8.94302 38.3733 9.03247 38.4614 9.09831 38.5661C9.24383 38.7703 9.3233 39.0138 9.32613 39.264C9.33313 39.4233 9.30107 39.582 9.23273 39.7262C9.16439 39.8705 9.0618 39.9961 8.93382 40.0921C8.68167 40.2882 8.37023 40.3936 8.05019 40.3911C7.63572 40.3928 7.22364 40.3285 6.82957 40.2007C6.44138 40.0743 6.06483 39.9353 5.69993 39.7838C5.33503 39.6322 4.9745 39.4937 4.61833 39.3682C4.26482 39.2419 3.89198 39.1775 3.51635 39.1778C3.31018 39.1777 3.10597 39.2175 2.91514 39.2951C2.72595 39.3707 2.55302 39.4815 2.40563 39.6216C2.26032 39.76 2.14016 39.9224 2.05044 40.1016C1.95825 40.2874 1.91137 40.4923 1.9136 40.6995C1.91421 40.8576 1.96888 41.0108 2.06863 41.1338C2.11558 41.1976 2.17742 41.249 2.24881 41.2837C2.3202 41.3184 2.399 41.3353 2.47842 41.3329C2.53885 41.3352 2.59887 41.3222 2.65286 41.2951C2.70684 41.268 2.75302 41.2277 2.78703 41.178C2.85459 41.0858 2.90988 40.9853 2.95153 40.879C3.04889 40.9767 3.13731 41.0828 3.21574 41.1961C3.29426 41.3108 3.33543 41.4468 3.33366 41.5856C3.33919 41.7649 3.30057 41.9429 3.22116 42.104C3.14175 42.2651 3.02395 42.4045 2.87801 42.51C2.59136 42.733 2.23749 42.8534 1.87357 42.8517C1.60281 42.8609 1.33383 42.8048 1.08959 42.6882C0.845356 42.5716 0.633113 42.3979 0.470979 42.1821C0.309614 41.9702 0.189176 41.7304 0.115782 41.4748C0.0367112 41.2103 -0.00325396 40.9357 -0.00285865 40.6597C-0.0147775 40.2038 0.088585 39.7523 0.297748 39.3465C0.493586 38.9833 0.771064 38.6699 1.10858 38.4308C1.4561 38.186 1.84484 38.0051 2.25642 37.8965C2.69099 37.7805 3.13917 37.7225 3.58913 37.7242ZM5.44736 40.3151C5.59009 40.3148 5.73073 40.3491 5.85715 40.415C5.98632 40.4826 6.11104 40.5583 6.23054 40.6416C6.18202 41.0402 6.14562 41.4389 6.12136 41.8375C6.0971 42.2361 6.08497 42.6408 6.08497 43.0515C6.08497 43.4496 6.12136 43.7274 6.19415 43.8847C6.22224 43.955 6.2665 44.0178 6.32337 44.0681C6.38025 44.1184 6.44816 44.1548 6.52169 44.1743C6.70522 44.2109 6.89424 44.2109 7.07777 44.1743C7.34589 44.1343 7.6168 44.1159 7.88788 44.1192C8.09459 44.2158 8.20401 44.3579 8.21615 44.5456C8.22779 44.7331 8.23434 44.9293 8.23434 45.1342C8.23571 45.2247 8.21707 45.3144 8.17975 45.3969C8.14336 45.4758 8.0582 45.5026 7.92427 45.4787C7.68939 45.5382 7.44745 45.5654 7.20515 45.5598C6.96356 45.5543 6.72211 45.5757 6.48529 45.6235C6.4972 45.9214 6.53077 46.218 6.58574 46.511C6.64006 46.7974 6.66759 47.0882 6.66799 47.3797C6.66876 47.9163 6.59204 48.4502 6.44017 48.9651C6.29805 49.4585 6.06642 49.922 5.7567 50.3325C5.45246 50.7317 5.06387 51.0596 4.61833 51.2932C4.13129 51.5417 3.58981 51.6661 3.04251 51.6551C2.70328 51.6534 2.36594 51.6047 2.04025 51.5103C1.70863 51.4176 1.39479 51.2709 1.1115 51.076C0.836354 50.8884 0.600722 50.6491 0.417845 50.3716C0.23286 50.0858 0.137591 49.7516 0.144169 49.4117C0.145242 49.2128 0.185551 49.0161 0.262811 48.8326C0.340062 48.6415 0.447704 48.4641 0.581613 48.307C0.712111 48.1521 0.873439 48.0256 1.05545 47.9357C1.2361 47.8454 1.43559 47.7988 1.63774 47.7996C1.95266 47.7996 2.18946 47.8751 2.34813 48.0262C2.52605 48.2097 2.66253 48.4288 2.74846 48.669C2.6433 48.7337 2.53388 48.7913 2.42092 48.8413C2.36256 48.8657 2.31343 48.9079 2.2805 48.9616C2.24758 49.0154 2.23253 49.0782 2.2375 49.141C2.23735 49.2303 2.25781 49.3184 2.2973 49.3986C2.3368 49.4788 2.39428 49.5489 2.46532 49.6036C2.60387 49.7251 2.78207 49.7925 2.96681 49.7932C3.36714 49.7932 3.69201 49.7027 3.94142 49.5218C4.18972 49.3411 4.39232 49.1054 4.53317 48.8333C4.68222 48.5441 4.78067 48.2317 4.82431 47.9096C4.872 47.5794 4.89633 47.2464 4.8971 46.9128C4.89702 46.6918 4.88512 46.4709 4.86144 46.2511C4.8378 46.0315 4.76945 45.8189 4.66055 45.6264C4.43723 45.5891 4.21026 45.5782 3.98436 45.5938C3.75921 45.6122 3.53139 45.6213 3.3009 45.6213C3.16064 45.6271 3.02082 45.6024 2.89112 45.549C2.78776 45.5007 2.73608 45.3738 2.73608 45.1682C2.73608 44.8786 2.78169 44.6672 2.87292 44.534C2.96046 44.4037 3.08816 44.3051 3.23685 44.2532C3.40405 44.1963 3.57914 44.1658 3.75581 44.1627C3.94991 44.1569 4.15032 44.1417 4.35703 44.1171C4.38126 43.9127 4.39027 43.7068 4.38396 43.501C4.37814 43.2962 4.37522 43.0906 4.37522 42.8857C4.37522 42.704 4.38105 42.4658 4.39342 42.1698C4.40338 41.8843 4.44215 41.6005 4.50915 41.3228C4.5674 41.0684 4.67576 40.828 4.82795 40.6155C4.89775 40.518 4.99101 40.4394 5.09921 40.3869C5.20741 40.3344 5.3271 40.3097 5.44736 40.3151Z" fill="#F8F8F8"/>
<path d="M9.6565 42.9429C9.87128 42.9337 10.0848 42.9804 10.2759 43.0783C10.4263 43.1621 10.5519 43.284 10.6398 43.4315C10.7285 43.5876 10.7842 43.76 10.8036 43.9383C10.8284 44.1427 10.8406 44.3484 10.84 44.5543C10.8404 45.0446 10.8161 45.5345 10.7672 46.0224C10.7187 46.5035 10.6944 46.9867 10.6944 47.4702C10.6944 47.5672 10.6944 47.6874 10.7039 47.8322C10.709 47.9731 10.7303 48.113 10.7672 48.2491C10.798 48.3709 10.8538 48.485 10.931 48.5843C10.9713 48.6308 11.0219 48.6674 11.0789 48.691C11.1359 48.7146 11.1977 48.7247 11.2592 48.7204C11.5868 48.7204 11.8389 48.5997 12.0155 48.3584C12.1991 48.0996 12.329 47.807 12.3976 47.4977C12.4776 47.159 12.5234 46.8132 12.5345 46.4654C12.5461 46.1093 12.5522 45.8163 12.5527 45.5866C12.5527 45.5142 12.5527 45.4237 12.5439 45.3144C12.5377 45.2065 12.5161 45.1 12.4799 44.9981C12.4488 44.9046 12.3993 44.8182 12.3343 44.744C12.3015 44.71 12.2617 44.6834 12.2176 44.6662C12.1735 44.6489 12.1261 44.6414 12.0788 44.6441C12.013 44.6461 11.9494 44.6683 11.8969 44.7078C11.8414 44.7452 11.7922 44.7911 11.7513 44.8439C11.7389 44.7715 11.7294 44.6991 11.7236 44.6267C11.7178 44.5543 11.7149 44.4819 11.7149 44.4095C11.7068 44.0623 11.8053 43.7209 11.9973 43.4308C12.1851 43.1533 12.4857 43.0146 12.8991 43.0146C13.3601 43.0146 13.6939 43.1685 13.9007 43.4764C14.1109 43.7964 14.219 44.1721 14.2107 44.5543C14.2108 45.1445 14.1773 45.7342 14.1103 46.3206C14.043 46.9133 14.0094 47.5093 14.0098 48.1058C14.0106 48.2414 14.0519 48.3737 14.1285 48.4858C14.1662 48.5447 14.2189 48.5925 14.2814 48.6243C14.3438 48.6561 14.4136 48.6708 14.4837 48.6668C14.5742 48.6693 14.6623 48.6372 14.7297 48.5771C14.7977 48.5145 14.8616 48.4478 14.9211 48.3773C14.9796 48.5465 15.0103 48.7239 15.0121 48.9028C15.0178 49.0798 14.9859 49.2561 14.9184 49.42C14.8509 49.5839 14.7494 49.7318 14.6205 49.854C14.4908 49.9771 14.338 50.0734 14.1707 50.1374C14.0034 50.2014 13.8251 50.2318 13.6459 50.2268C13.2199 50.2268 12.9314 50.1151 12.7805 49.8917C12.6079 49.6213 12.4817 49.3244 12.4071 49.0128C12.1408 49.3878 11.7924 49.6978 11.3881 49.9192C10.9863 50.1367 10.5354 50.2488 10.0779 50.2449C9.82318 50.2449 9.6252 50.1725 9.48618 50.0365C9.34411 49.8942 9.23786 49.7206 9.17611 49.5297C9.10757 49.3215 9.0679 49.105 9.05819 48.8862C9.04606 48.6564 9.04 48.4511 9.04 48.2701C9.03988 47.8111 9.08252 47.3531 9.16737 46.9019C9.2519 46.451 9.29454 45.9932 9.29475 45.5345C9.2975 45.3218 9.26353 45.1102 9.1943 44.909C9.12734 44.7222 8.95484 44.6281 8.67534 44.6281C8.63672 44.6295 8.59886 44.6392 8.56432 44.6564C8.52979 44.6737 8.49938 44.6981 8.47518 44.728C8.42151 44.7835 8.37813 44.8479 8.34707 44.9184C8.27257 44.7153 8.23558 44.5005 8.2379 44.2843C8.2379 43.8741 8.37764 43.5478 8.65714 43.3056C8.93343 43.0655 9.28966 42.9362 9.6565 42.9429Z" fill="#F8F8F8"/>
<path d="M15.9373 42.961C16.2895 42.961 16.5564 43.0575 16.7379 43.2506C16.9355 43.4709 17.0843 43.7301 17.1746 44.0114C17.3202 43.6494 17.5114 43.3898 17.7482 43.2325C17.985 43.0751 18.2979 42.9967 18.6871 42.9972C19.0753 42.9972 19.3664 43.1239 19.5605 43.3772C19.7587 43.6444 19.8612 43.9698 19.8517 44.3017C19.8599 44.5106 19.8095 44.7176 19.7061 44.8996C19.6126 45.0511 19.509 45.1962 19.396 45.334C19.2852 45.4691 19.1876 45.6145 19.1049 45.7683C19.0148 45.954 18.9831 46.1624 19.0139 46.3662C18.9091 46.3529 18.8054 46.3316 18.7039 46.3025C18.5983 46.2742 18.4971 46.2316 18.4032 46.1759C18.3137 46.1227 18.2361 46.0517 18.1754 45.9674C18.113 45.877 18.0811 45.7693 18.0844 45.6597C18.0845 45.489 18.1351 45.322 18.23 45.1798C18.3217 45.0357 18.4251 44.8993 18.5394 44.7722L18.2846 44.7541C17.9323 44.7541 17.6771 44.8292 17.5189 44.9792C17.3582 45.1343 17.2447 45.3312 17.1914 45.5475C17.1288 45.7918 17.1042 46.0443 17.1186 46.296C17.1302 46.5668 17.1368 46.8223 17.1368 47.0626C17.1368 47.2074 17.1302 47.3848 17.1186 47.5954C17.106 47.8005 17.1182 48.0064 17.155 48.2086C17.1836 48.39 17.2519 48.563 17.3551 48.7153C17.4519 48.8543 17.6106 48.9231 17.829 48.9231C18.0669 48.9204 18.2972 48.8394 18.484 48.6929C18.6791 48.5552 18.8206 48.3551 18.8851 48.1261C19.0006 48.4015 19.0624 48.6963 19.0671 48.9948C19.0744 49.2192 19.0208 49.4415 18.912 49.6383C18.8129 49.8092 18.6719 49.9524 18.5022 50.0546C18.3252 50.1595 18.1311 50.233 17.9287 50.2717C17.7156 50.3137 17.4989 50.3348 17.2816 50.3347C16.9941 50.343 16.707 50.3066 16.4307 50.2268C16.2293 50.1658 16.0492 50.0497 15.911 49.8917C15.7761 49.7244 15.6882 49.5246 15.6563 49.3125C15.6105 49.0401 15.589 48.7642 15.5922 48.488C15.5925 48.0639 15.6199 47.6403 15.6745 47.2197C15.7291 46.7992 15.7566 46.3755 15.7567 45.9514V45.5439C15.7573 45.3974 15.7389 45.2514 15.7022 45.1095C15.6701 44.9791 15.6075 44.858 15.5195 44.7563C15.4734 44.7069 15.4168 44.6682 15.3539 44.6432C15.2909 44.6182 15.2232 44.6073 15.1555 44.6115C15.0547 44.6082 14.9566 44.644 14.8819 44.7114C14.8073 44.7797 14.7402 44.8557 14.6817 44.938C14.6303 44.7614 14.6058 44.5781 14.6089 44.3943C14.602 44.0261 14.7316 43.6682 14.9728 43.3888C15.0904 43.2494 15.2384 43.1385 15.4055 43.0643C15.5725 42.9902 15.7544 42.9549 15.9373 42.961Z" fill="#F8F8F8"/>
<path d="M24.042 37.8698C24.9513 37.8698 25.7452 38.0387 26.4236 38.3765C27.0854 38.7008 27.664 39.1713 28.1151 39.7519C28.5758 40.3562 28.918 41.0414 29.1239 41.7716C29.553 43.2673 29.5719 44.85 29.1785 46.3554C29.0027 47.0471 28.7072 47.7031 28.3051 48.294C27.9176 48.8625 27.4089 49.339 26.8152 49.6897C26.2154 50.0478 25.5038 50.2268 24.6803 50.2268C24.2374 50.2273 23.7956 50.1817 23.3622 50.0907C22.929 50.0001 22.4874 49.9547 22.0448 49.9554C21.8837 49.9595 21.7267 50.0062 21.5898 50.0907C21.5175 50.127 21.4568 50.1829 21.415 50.2519C21.3731 50.321 21.3518 50.4003 21.3533 50.4809C21.3533 50.686 21.4688 50.8308 21.6998 50.9153C21.566 51.012 21.426 51.0998 21.2805 51.1781C21.1353 51.2564 20.9726 51.297 20.8074 51.2961C20.6066 51.2978 20.4088 51.248 20.2331 51.1513C20.0576 51.0556 19.9004 50.9299 19.7687 50.7799C19.503 50.4754 19.3545 50.0871 19.3495 49.6839C19.3495 49.3582 19.4223 49.0927 19.5678 48.8876C19.7104 48.6845 19.9011 48.5197 20.1232 48.4077C20.3608 48.2888 20.6162 48.2091 20.8795 48.1717C21.1507 48.1303 21.4246 48.1092 21.699 48.1087C22.1566 48.1094 22.6134 48.1457 23.0652 48.2173C23.1501 48.0725 23.2047 47.8338 23.229 47.5013C23.2532 47.1688 23.2654 46.8156 23.2654 46.4415C23.2654 46.0675 23.2564 45.7022 23.2384 45.3455C23.2205 44.9889 23.2113 44.7141 23.2108 44.521C23.2108 44.437 23.2836 44.3458 23.4291 44.2495C23.5893 44.1444 23.7566 44.0505 23.9299 43.9687C24.1177 43.8784 24.306 43.7969 24.4947 43.724C24.6825 43.6516 24.8135 43.6031 24.8863 43.5792C24.9466 44.2023 24.9648 44.8286 24.9409 45.4541C24.9162 46.0767 24.904 46.7019 24.9045 47.3298V47.8546C24.9031 48.0262 24.9276 48.197 24.9773 48.3613C25.4583 48.3061 25.9131 48.1143 26.2875 47.809C26.6406 47.5147 26.9278 47.1499 27.1303 46.7383C27.3411 46.3077 27.4882 45.8491 27.567 45.3767C27.6498 44.913 27.6924 44.4432 27.6944 43.9723C27.6962 43.4184 27.6228 42.8669 27.4761 42.3326C27.34 41.8273 27.1115 41.3513 26.8021 40.9283C26.4998 40.5191 26.1071 40.1845 25.6542 39.9503C25.1928 39.709 24.6464 39.5883 24.0151 39.5883C23.7711 39.5901 23.5286 39.6269 23.2952 39.6976C23.0524 39.7671 22.822 39.8741 22.6125 40.0147C22.4109 40.1487 22.2377 40.3209 22.103 40.5214C21.967 40.7287 21.897 40.9719 21.9021 41.2193C21.903 41.3228 21.9152 41.426 21.9385 41.5269C21.9636 41.6374 22.0035 41.7441 22.0571 41.844C22.1069 41.9406 22.1749 42.0269 22.2573 42.0981C22.336 42.1645 22.4365 42.2 22.5397 42.198C22.6057 42.1941 22.6705 42.1786 22.7311 42.1524C22.8105 42.122 22.892 42.0858 22.9771 42.0438C23.056 42.0053 23.1294 41.9566 23.1955 41.899C23.2222 41.8785 23.2442 41.8525 23.2599 41.8227C23.2756 41.793 23.2847 41.7603 23.2865 41.7267C23.2865 41.6302 23.229 41.5274 23.114 41.4183C22.999 41.3093 22.9109 41.2248 22.8498 41.165C22.971 41.0317 23.12 40.9264 23.2865 40.8566C23.4533 40.7849 23.6332 40.748 23.8149 40.748C24.2274 40.748 24.5401 40.8839 24.7531 41.1556C24.9693 41.439 25.0818 41.7873 25.0719 42.143C25.0768 42.4178 24.9965 42.6875 24.8419 42.9154C24.6893 43.1403 24.4945 43.334 24.2684 43.4858C24.0347 43.6447 23.7762 43.764 23.5034 43.8391C23.2433 43.915 22.9738 43.9547 22.7027 43.9571C22.3203 43.9635 21.9411 43.8862 21.592 43.7305C21.274 43.5875 20.991 43.3773 20.763 43.1145C20.5337 42.8465 20.3604 42.5356 20.2535 42.2002C20.1368 41.8432 20.0784 41.4701 20.0803 41.0948C20.0691 40.6065 20.1913 40.1244 20.434 39.6998C20.6669 39.305 20.9797 38.9626 21.3526 38.6943C21.7378 38.4174 22.1682 38.2088 22.6249 38.0775C23.0848 37.9411 23.5621 37.8711 24.042 37.8698Z" fill="#F8F8F8"/>
<path d="M32.0608 42.7793C32.4047 42.7754 32.7461 42.8371 33.0667 42.961C33.3608 43.0747 33.6283 43.2472 33.8528 43.4677C34.0758 43.6914 34.2529 43.9562 34.3739 44.2474C34.5048 44.5631 34.5702 44.9019 34.5661 45.2435C34.5656 45.5231 34.5226 45.8011 34.4387 46.068C34.3585 46.3295 34.2321 46.5746 34.0653 46.7919C33.9014 47.003 33.6964 47.179 33.4626 47.3095C33.2144 47.4449 32.9349 47.5135 32.6518 47.5086C32.3859 47.5047 32.122 47.4621 31.8686 47.3819C31.7393 47.3473 31.6188 47.2858 31.5152 47.2014C31.4115 47.117 31.3271 47.0118 31.2674 46.8925V47.0916C31.2571 47.5087 31.3575 47.9212 31.5585 48.2875C31.7526 48.6253 32.1098 48.7942 32.63 48.7942C33.3093 48.7942 33.715 48.474 33.8469 47.8336C33.9793 47.9295 34.0805 48.0619 34.1381 48.2144C34.1988 48.3704 34.2297 48.5364 34.2291 48.7037C34.2352 48.9482 34.1653 49.1887 34.0289 49.3922C33.8948 49.5859 33.7212 49.7494 33.5194 49.8721C33.3102 50 33.0824 50.0947 32.8439 50.153C32.6113 50.2122 32.3722 50.2425 32.1321 50.2435C31.608 50.2435 31.1757 50.1289 30.8351 49.8996C30.5007 49.6754 30.2259 49.3738 30.0344 49.0208C29.8339 48.6467 29.6953 48.2429 29.6239 47.8249C29.5453 47.3913 29.5056 46.9516 29.5052 46.511C29.5073 46.0887 29.547 45.6675 29.6239 45.2522C29.6962 44.8313 29.835 44.4245 30.0351 44.0468C30.2256 43.6902 30.4942 43.3807 30.8212 43.1412C31.1478 42.8999 31.561 42.7793 32.0608 42.7793ZM31.2871 45.334C31.2838 45.5733 31.3299 45.8108 31.4224 46.0318C31.5117 46.2432 31.7126 46.3489 32.0251 46.3489C32.3376 46.3489 32.5691 46.2371 32.7195 46.0137C32.8709 45.7854 32.9493 45.5169 32.9444 45.2435C32.9438 45.1069 32.9319 44.9706 32.9087 44.8359C32.8868 44.7034 32.844 44.5752 32.7821 44.4559C32.725 44.3441 32.6416 44.2478 32.539 44.175C32.4189 44.0968 32.2769 44.0585 32.1336 44.0657C31.9905 44.0615 31.8504 44.1065 31.7369 44.1931C31.6277 44.2785 31.5387 44.3867 31.4763 44.5101C31.4093 44.6388 31.3603 44.7759 31.3307 44.9177C31.3021 45.0546 31.2875 45.1941 31.2871 45.334Z" fill="#F8F8F8"/>
<path d="M35.6689 39.7903C36.0085 39.7903 36.2635 39.8899 36.4338 40.0892C36.61 40.3024 36.7319 40.5547 36.789 40.8247C36.8577 41.1256 36.8894 41.4335 36.8837 41.7419C36.8778 42.0629 36.8749 42.3382 36.8749 42.5679C36.8749 43.4395 36.8446 44.3017 36.7839 45.1544C36.7233 46.0072 36.6927 46.8696 36.6922 47.7417C36.6922 47.8025 36.6981 47.893 36.7104 48.0146C36.7228 48.1362 36.741 48.2564 36.7657 48.3765C36.7863 48.4884 36.8262 48.596 36.8837 48.6943C36.9053 48.7357 36.938 48.7704 36.9782 48.7944C37.0185 48.8184 37.0646 48.8309 37.1115 48.8304C37.1655 48.8273 37.2181 48.812 37.2653 48.7858C37.3126 48.7596 37.3533 48.7231 37.3844 48.6791C37.4569 48.5948 37.524 48.5061 37.5853 48.4135C37.6583 48.4986 37.7195 48.593 37.7673 48.6943C37.8147 48.7934 37.8396 48.9017 37.8401 49.0114C37.8408 49.1896 37.7864 49.3637 37.6843 49.5102C37.5791 49.6632 37.4464 49.7955 37.2927 49.9004C37.1332 50.0098 36.9584 50.0952 36.7738 50.1537C36.6066 50.2107 36.4315 50.2412 36.2548 50.2442C35.9389 50.2442 35.7021 50.1598 35.5444 49.9908C35.3791 49.8105 35.2593 49.5937 35.195 49.3582C35.1216 49.0988 35.0817 48.8312 35.0764 48.5619C35.0706 48.2844 35.0676 48.0368 35.0676 47.8191C35.0676 46.8288 35.098 45.8446 35.1586 44.8663C35.2193 43.8881 35.2496 42.9036 35.2496 41.9128C35.2505 41.796 35.2222 41.6808 35.1674 41.5776C35.1408 41.5271 35.0998 41.4855 35.0496 41.4581C34.9993 41.4307 34.9421 41.4186 34.885 41.4234C34.7879 41.4235 34.693 41.452 34.612 41.5052C34.529 41.5572 34.4602 41.6288 34.4118 41.7137C34.3757 41.5592 34.3574 41.4011 34.3573 41.2424C34.3474 40.8728 34.4665 40.5111 34.6943 40.2188C34.9184 39.9331 35.2433 39.7903 35.6689 39.7903Z" fill="#F8F8F8"/>
<path d="M38.7383 43.0696C39.1934 43.0696 39.5219 43.2325 39.7238 43.5582C39.9278 43.8908 40.0331 44.274 40.0273 44.6636C40.0273 45.2427 40.003 45.8195 39.9545 46.3938C39.906 46.9681 39.8817 47.545 39.8817 48.1246C39.8817 48.2585 39.9089 48.391 39.9618 48.5141C40.0152 48.641 40.1251 48.7045 40.2915 48.7045C40.3631 48.7012 40.4332 48.6834 40.4975 48.6522C40.5619 48.6209 40.6191 48.5769 40.6656 48.5228C40.6773 48.5836 40.686 48.6379 40.6926 48.6864C40.6987 48.7404 40.7016 48.7948 40.7013 48.8492C40.7112 49.2174 40.5883 49.5769 40.3548 49.8627C40.1239 50.1407 39.7961 50.2794 39.3715 50.279C39.1163 50.279 38.9159 50.2278 38.7703 50.1255C38.6236 50.0214 38.5074 49.8805 38.4333 49.7172C38.3526 49.5424 38.3003 49.356 38.2783 49.1649C38.254 48.9633 38.2418 48.7605 38.2419 48.5575C38.2419 48.0146 38.2632 47.4741 38.3059 46.936C38.3486 46.3979 38.3697 45.8573 38.3692 45.3144C38.3692 45.2666 38.3692 45.2029 38.3605 45.1247C38.3541 45.0453 38.3419 44.9665 38.3241 44.8888C38.309 44.818 38.2811 44.7506 38.2419 44.6897C38.2241 44.663 38.1997 44.6414 38.1709 44.6271C38.1422 44.6127 38.1102 44.6061 38.0781 44.6079C37.9823 44.6077 37.8881 44.6326 37.8052 44.6803C37.7253 44.7247 37.6518 44.7798 37.5868 44.8439C37.5886 44.6554 37.6069 44.4674 37.6414 44.2821C37.6766 44.0809 37.7411 43.8858 37.8328 43.703C37.918 43.5287 38.0393 43.3743 38.1887 43.2498C38.3442 43.1261 38.5393 43.0621 38.7383 43.0696ZM39.135 40.5692C39.2546 40.5665 39.3734 40.5893 39.4834 40.6362C39.5933 40.683 39.692 40.7527 39.7726 40.8407C39.9399 41.0163 40.0313 41.2502 40.0273 41.4922C40.0299 41.6214 40.0062 41.7498 39.9576 41.8697C39.9091 41.9896 39.8367 42.0985 39.7448 42.1899C39.6529 42.2813 39.5434 42.3533 39.4229 42.4016C39.3023 42.4499 39.1732 42.4735 39.0432 42.4709C38.9278 42.4729 38.8133 42.4497 38.7079 42.4028C38.6024 42.3559 38.5087 42.2864 38.4333 42.1994C38.2752 42.0326 38.1871 41.812 38.1873 41.5827C38.1852 41.3229 38.2793 41.0715 38.4515 40.8761C38.5346 40.7768 38.6393 40.6975 38.7577 40.6443C38.8761 40.5912 39.0051 40.5655 39.135 40.5692Z" fill="#F8F8F8"/>
<path d="M43.2197 42.9067C43.4948 42.8961 43.7672 42.9653 44.0036 43.1058C44.2328 43.26 44.4357 43.4496 44.6048 43.6675C44.7649 43.4844 44.9485 43.3228 45.1507 43.1868C45.3491 43.0509 45.5845 42.9784 45.8254 42.9791C46.2621 42.9791 46.5749 43.1089 46.7636 43.3685C46.9524 43.6282 47.0465 43.9634 47.046 44.3741V44.791C46.9849 44.7346 46.9208 44.6817 46.8546 44.631C46.7834 44.5791 46.6968 44.5523 46.6086 44.555C46.5515 44.5515 46.4943 44.5601 46.4408 44.5804C46.3873 44.6006 46.3388 44.6319 46.2985 44.6723C46.2231 44.7556 46.1672 44.8545 46.1347 44.9619C46.0979 45.0793 46.0764 45.2009 46.0707 45.3238C46.0649 45.4512 46.062 45.562 46.062 45.6583C46.062 46.1288 46.0709 46.5991 46.0889 47.0692C46.1068 47.5392 46.1161 48.009 46.1165 48.4786C46.1102 48.7308 46.1504 48.9821 46.2352 49.2199C46.3138 49.4255 46.399 49.6238 46.4899 49.8164C46.5809 50.0089 46.6661 50.1993 46.7454 50.3861C46.8284 50.5962 46.8684 50.8206 46.8633 51.0463C46.8658 51.289 46.8064 51.5283 46.6908 51.742C46.5751 51.9527 46.4168 52.1374 46.2257 52.2842C46.0307 52.4354 45.8124 52.5544 45.5794 52.6367C45.3486 52.7202 45.1051 52.7631 44.8595 52.7634C44.6217 52.7623 44.3855 52.7257 44.1586 52.6548C43.9213 52.5824 43.6935 52.5069 43.4751 52.4282C43.2568 52.3496 43.0532 52.274 42.8645 52.2017C42.7115 52.1369 42.548 52.1001 42.3819 52.0931C42.2916 52.0909 42.2027 52.1162 42.1271 52.1655C42.0915 52.1891 42.0627 52.2215 42.0435 52.2596C42.0244 52.2977 42.0156 52.3401 42.018 52.3826C42.0164 52.4627 42.0455 52.5404 42.0995 52.5998C42.1469 52.6544 42.2061 52.6977 42.2727 52.7265C42.2218 52.7376 42.1698 52.7436 42.1177 52.7446H41.9634C41.599 52.7446 41.3013 52.6502 41.0703 52.4615C40.8393 52.2728 40.7241 51.9833 40.7246 51.5929C40.7203 51.4271 40.761 51.2633 40.8425 51.1187C40.9207 50.9855 41.0264 50.8703 41.1525 50.7806C41.284 50.6866 41.4322 50.6183 41.5892 50.5794C41.7467 50.5376 41.9089 50.5162 42.0718 50.5157C42.2989 50.515 42.5241 50.5557 42.7364 50.6358C42.9489 50.7164 43.1554 50.8062 43.3558 50.9051C43.5567 51.0036 43.7474 51.0934 43.93 51.1737C44.0957 51.2505 44.2757 51.2917 44.4585 51.2946C44.5958 51.2863 44.7254 51.2283 44.8226 51.1315C44.9199 51.0346 44.9781 50.9057 44.9862 50.769C44.9748 50.6831 44.9471 50.6001 44.9047 50.5244C44.8503 50.409 44.7865 50.2852 44.7132 50.153C44.64 50.0208 44.5672 49.8938 44.4949 49.7722C44.4397 49.6854 44.391 49.5947 44.3493 49.5008C44.1601 49.675 43.9489 49.8242 43.7212 49.9445C43.4891 50.07 43.2291 50.1355 42.9649 50.1349C42.5282 50.1349 42.1761 50.02 41.9088 49.7903C41.6389 49.558 41.4268 49.2666 41.2894 48.939C41.1403 48.5899 41.0451 48.2204 41.007 47.843C40.9658 47.4791 40.9444 47.1132 40.9429 46.747C40.9429 46.3479 40.9643 45.9251 41.007 45.4787C41.044 45.0532 41.1421 44.6352 41.2981 44.2372C41.441 43.8685 41.6751 43.5416 41.9787 43.2867C42.2834 43.0334 42.6971 42.9067 43.2197 42.9067ZM42.7102 47.6939C42.7081 47.9289 42.7922 48.1567 42.9467 48.3345C43.0246 48.4263 43.1225 48.4991 43.233 48.5474C43.3435 48.5957 43.4637 48.6183 43.5843 48.6133C43.7023 48.6197 43.8201 48.5965 43.9268 48.546C44.0335 48.4954 44.1257 48.4189 44.195 48.3237C44.3415 48.1147 44.4437 47.8782 44.4956 47.6287C44.5579 47.3536 44.5925 47.0731 44.599 46.7912C44.6048 46.5016 44.6084 46.2685 44.6084 46.0883C44.6084 45.9435 44.599 45.7755 44.5808 45.5815C44.5649 45.3994 44.522 45.2205 44.4534 45.0509C44.3902 44.8941 44.2939 44.7527 44.171 44.6361C44.036 44.5168 43.8593 44.4551 43.6789 44.4645C43.5353 44.4581 43.3931 44.4952 43.2712 44.5709C43.1492 44.6467 43.0533 44.7575 42.9962 44.8887C42.8496 45.1956 42.757 45.5251 42.7225 45.8631C42.6801 46.2222 42.6679 46.5842 42.6861 46.9454C42.7007 47.3001 42.7102 47.5484 42.7102 47.6932V47.6939Z" fill="#F8F8F8"/>
<path d="M48.0389 39.7903C48.3184 39.7903 48.5396 39.8511 48.7041 39.9713C48.8693 40.0939 49.0008 40.256 49.0863 40.4425C49.1799 40.6432 49.2415 40.8571 49.269 41.0767C49.2985 41.2989 49.3135 41.5228 49.3141 41.747C49.3139 42.1714 49.2834 42.5952 49.2231 43.0153C49.1624 43.4353 49.132 43.8592 49.1321 44.2836V44.356C49.2655 44.1854 49.4115 44.025 49.5688 43.876C49.7386 43.7128 49.9247 43.5673 50.1242 43.4417C50.3216 43.3164 50.5323 43.213 50.7523 43.1333C50.9565 43.0578 51.1722 43.0181 51.3899 43.016C51.6211 43.0045 51.8494 43.0711 52.0377 43.2049C52.1991 43.3293 52.3273 43.4911 52.4111 43.6762C52.4992 43.8746 52.5545 44.0858 52.5749 44.3017C52.5989 44.518 52.6113 44.7355 52.612 44.9532C52.612 45.3521 52.596 45.7495 52.5662 46.1491C52.5363 46.5487 52.5203 46.9454 52.5203 47.345C52.5203 47.4051 52.5203 47.5107 52.5298 47.662C52.5361 47.8167 52.5512 47.9709 52.5749 48.1239C52.5956 48.2663 52.6325 48.406 52.6848 48.5401C52.7329 48.6618 52.8056 48.7218 52.9032 48.7218C52.957 48.7191 53.0097 48.7057 53.0583 48.6823C53.1068 48.6589 53.1501 48.6261 53.1856 48.5857L53.4134 48.3592C53.4723 48.5655 53.5029 48.7788 53.5044 48.9933C53.512 49.2051 53.4617 49.415 53.3588 49.6007C53.264 49.7614 53.1294 49.8955 52.9679 49.9901C52.7992 50.0885 52.614 50.1559 52.4213 50.1892C52.2138 50.226 52.0033 50.2442 51.7925 50.2435C51.6949 50.2457 51.5985 50.2216 51.5136 50.1738C51.4286 50.1261 51.3583 50.0563 51.3099 49.972C51.1885 49.7769 51.1021 49.5624 51.0544 49.3379C50.9998 49.0966 50.9664 48.8509 50.9547 48.6038C50.9426 48.3563 50.9365 48.1661 50.9365 48.0334C50.9365 47.683 50.9486 47.3327 50.9729 46.9823C50.9971 46.6319 51.0093 46.2815 51.0093 45.9312C51.0093 45.8472 51.0093 45.7263 50.9998 45.5692C50.9939 45.411 50.9756 45.2534 50.9452 45.098C50.9201 44.9535 50.8675 44.8152 50.7902 44.6904C50.759 44.6366 50.7138 44.5922 50.6594 44.5619C50.6049 44.5316 50.5432 44.5165 50.4808 44.5181C50.3388 44.5229 50.1992 44.5569 50.0711 44.618C49.9178 44.6852 49.7716 44.7672 49.6343 44.8627C49.499 44.9554 49.3818 45.0719 49.2886 45.2065C49.2057 45.3185 49.1523 45.4495 49.1336 45.5873C49.1088 45.8653 49.0846 46.1462 49.0608 46.4299C49.037 46.7137 49.0249 46.9944 49.0244 47.2719V47.6077C49.0246 47.7597 49.0397 47.9112 49.0695 48.0602C49.0945 48.1963 49.1407 48.3277 49.2064 48.4497C49.2311 48.5003 49.2702 48.5427 49.3188 48.5717C49.3674 48.6006 49.4234 48.6148 49.48 48.6125C49.577 48.6126 49.6719 48.5844 49.753 48.5315C49.8319 48.4822 49.9052 48.4244 49.9713 48.3592C49.9954 48.4562 50.0201 48.5553 50.0441 48.6581C50.0674 48.7561 50.0794 48.8564 50.0798 48.9571C50.0798 49.3673 49.9464 49.681 49.6795 49.8982C49.4006 50.1193 49.0519 50.2348 48.6954 50.2239C48.4767 50.2329 48.2597 50.1829 48.0673 50.0792C47.9055 49.9846 47.7708 49.8505 47.6757 49.6897C47.5761 49.5212 47.5052 49.3375 47.466 49.146C47.4226 48.9404 47.4011 48.7307 47.402 48.5206C47.402 47.4342 47.4323 46.3564 47.493 45.2869C47.5536 44.2174 47.5837 43.14 47.5832 42.0547C47.5855 41.906 47.5407 41.7603 47.4551 41.6384C47.4122 41.5784 47.3545 41.5302 47.2877 41.4984C47.2208 41.4666 47.147 41.4523 47.073 41.4567C46.9923 41.4551 46.9123 41.4724 46.8395 41.5071C46.7667 41.5418 46.7031 41.5929 46.6538 41.6565C46.6426 41.6026 46.6365 41.5479 46.6356 41.4929V41.33C46.6235 40.9357 46.7493 40.5494 46.9915 40.2369C47.2288 39.9392 47.5779 39.7903 48.0389 39.7903Z" fill="#F8F8F8"/>
<path d="M55.8873 43.0334H56.1239C56.415 43.0334 56.6091 43.0756 56.7061 43.1601C56.8032 43.2445 56.8517 43.4376 56.8517 43.7392C56.8517 43.9086 56.8214 44.0324 56.7607 44.1105C56.7029 44.1874 56.6252 44.2473 56.5358 44.2836C56.434 44.3217 56.3258 44.3401 56.217 44.3379H55.8531C55.8283 44.7847 55.7856 45.2256 55.725 45.6604C55.6642 46.0987 55.6338 46.5406 55.634 46.983C55.634 47.0916 55.6405 47.2429 55.6522 47.4362C55.6641 47.6282 55.6916 47.819 55.7344 48.0066C55.7712 48.1803 55.8389 48.3461 55.9346 48.496C55.9752 48.5624 56.0329 48.6168 56.1018 48.6534C56.1706 48.6901 56.2481 48.7077 56.3262 48.7045C56.4052 48.7063 56.4824 48.6807 56.5446 48.6321C56.6052 48.5841 56.6601 48.5295 56.7083 48.4692C56.7641 48.6453 56.7947 48.8283 56.7993 49.0128C56.7993 49.4115 56.6656 49.7225 56.3983 49.946C56.1222 50.1727 55.7727 50.2918 55.4149 50.2811C55.1238 50.2811 54.8959 50.2116 54.7315 50.0726C54.5654 49.931 54.4371 49.7507 54.3581 49.5478C54.2714 49.3301 54.2162 49.1012 54.1943 48.8681C54.1705 48.6393 54.1583 48.4096 54.1579 48.1796C54.1579 47.5276 54.179 46.8875 54.2212 46.2591C54.2634 45.6308 54.2848 44.9906 54.2853 44.3386H53.5931C53.3626 44.3386 53.2413 44.2843 53.2291 44.1757C53.2159 44.0371 53.2098 43.8979 53.2109 43.7587C53.2109 43.5295 53.2352 43.3664 53.2837 43.2694C53.3021 43.2261 53.3307 43.1879 53.3671 43.1579C53.4034 43.1279 53.4465 43.1071 53.4926 43.0971C53.6072 43.0782 53.7238 43.0753 53.8391 43.0884C53.9948 43.0994 54.1513 43.0872 54.3035 43.0522C54.3274 42.8264 54.3396 42.5995 54.3399 42.3724V41.6753C54.3443 41.5163 54.3949 41.362 54.4854 41.2308C54.5854 41.0775 54.7047 40.9376 54.8406 40.8146C54.9802 40.688 55.1367 40.5813 55.3057 40.4975C55.4514 40.4192 55.6134 40.3758 55.7788 40.3708C55.8183 40.3698 55.8575 40.3773 55.8938 40.3929C55.93 40.4086 55.9623 40.4319 55.9885 40.4613C56.0429 40.5206 56.0723 40.5983 56.0707 40.6785C56.0702 41.0697 56.0398 41.4603 55.9797 41.8469C55.9184 42.2394 55.8875 42.6361 55.8873 43.0334Z" fill="#F8F8F8"/>
<path d="M60.0675 42.9429C60.3718 42.9446 60.6748 42.984 60.9693 43.0602C61.2678 43.1346 61.5532 43.2537 61.8158 43.4134C62.0658 43.5659 62.2802 43.7698 62.4447 44.0114C62.6132 44.2695 62.699 44.5724 62.6907 44.8801C62.6959 44.9704 62.6787 45.0606 62.6406 45.1428C62.6025 45.225 62.5448 45.2966 62.4723 45.3513C62.3254 45.4603 62.1461 45.5176 61.9628 45.5142C61.6833 45.5142 61.4769 45.4507 61.3434 45.3238C61.2077 45.1952 61.0829 45.0557 60.97 44.9068C60.8537 44.7553 60.7223 44.6158 60.5777 44.4906C60.4321 44.3632 60.2138 44.3002 59.9226 44.3002C59.8404 44.2992 59.7589 44.3157 59.6836 44.3485C59.6083 44.3814 59.5409 44.4298 59.4859 44.4906C59.4275 44.5489 59.3813 44.6181 59.3499 44.6943C59.3185 44.7705 59.3027 44.8521 59.3032 44.9344C59.2998 45.0455 59.3228 45.1559 59.3704 45.2565C59.4179 45.3571 59.4887 45.4452 59.5769 45.5135C59.7837 45.6718 60.014 45.7971 60.2596 45.8848C60.5333 45.9876 60.8303 46.0904 61.1527 46.1925C61.4659 46.2914 61.7656 46.4283 62.0451 46.6001C62.3164 46.7671 62.5493 46.9891 62.7285 47.2516C62.9105 47.517 63.0015 47.8671 63.0015 48.302C63.0062 48.5921 62.9467 48.8796 62.827 49.1443C62.7074 49.4089 62.5306 49.644 62.3093 49.833C62.0918 50.0143 61.8416 50.1526 61.572 50.2406C61.2874 50.3367 60.9889 50.3856 60.6883 50.3854C60.4372 50.3898 60.1874 50.3498 59.9503 50.2674C59.7512 50.1946 59.5567 50.1097 59.368 50.0133C59.1919 49.9228 59.031 49.8388 58.8854 49.7599C58.7578 49.6864 58.6136 49.6459 58.4662 49.6419C58.3759 49.6402 58.2872 49.6654 58.2114 49.7143C58.1758 49.7379 58.147 49.7704 58.1279 49.8085C58.1087 49.8466 58.0999 49.889 58.1023 49.9315C58.1004 49.985 58.1129 50.038 58.1387 50.085C58.1627 50.1277 58.1867 50.1733 58.2114 50.221C58.0739 50.2128 57.94 50.1734 57.82 50.1059C57.7001 50.0385 57.5972 49.9446 57.5192 49.8316C57.3546 49.6108 57.2651 49.3435 57.2638 49.0686C57.2618 48.9238 57.2909 48.7802 57.349 48.6474C57.4071 48.5146 57.4929 48.3956 57.6008 48.2984C57.8121 48.0936 58.0962 47.9802 58.3912 47.9827C58.6257 47.9833 58.8578 48.0293 59.0747 48.1181C59.2916 48.205 59.5016 48.308 59.7028 48.4265C59.8972 48.5416 60.0791 48.6437 60.2494 48.7341C60.3937 48.8177 60.5565 48.8644 60.7233 48.8702C61.0023 48.8702 61.1845 48.7978 61.2699 48.6531C61.3624 48.4744 61.4063 48.2747 61.3973 48.0739C61.3022 47.8831 61.145 47.73 60.9511 47.6396C60.7134 47.5208 60.4666 47.4208 60.2131 47.3406C59.9336 47.2504 59.6451 47.1539 59.3476 47.0511C59.0574 46.9519 58.7817 46.8146 58.5281 46.6428C58.28 46.4751 58.0716 46.2558 57.9174 45.9999C57.7592 45.7403 57.6803 45.4051 57.6808 44.9944C57.6736 44.6865 57.7424 44.3816 57.881 44.1062C58.0093 43.8595 58.1895 43.6433 58.4094 43.4721C58.6363 43.2987 58.8924 43.1668 59.1657 43.0826C59.4571 42.9897 59.7614 42.9425 60.0675 42.9429Z" fill="#F8F8F8"/>
</g>
<defs>
<linearGradient id="paint0_linear_190_616" x1="11.2229" y1="53.6531" x2="11.2229" y2="55.0929" gradientUnits="userSpaceOnUse">
<stop stop-color="#B4DEFF"/>
<stop offset="1" stop-color="#F8F8F8"/>
</linearGradient>
<linearGradient id="paint1_linear_190_616" x1="13.7136" y1="53.6531" x2="13.7136" y2="55.0929" gradientUnits="userSpaceOnUse">
<stop stop-color="#B4DEFF"/>
<stop offset="1" stop-color="#F8F8F8"/>
</linearGradient>
<linearGradient id="paint2_linear_190_616" x1="15.7837" y1="53.6531" x2="15.7837" y2="55.0929" gradientUnits="userSpaceOnUse">
<stop stop-color="#B4DEFF"/>
<stop offset="1" stop-color="#F8F8F8"/>
</linearGradient>
<linearGradient id="paint3_linear_190_616" x1="16.9257" y1="53.6531" x2="16.9257" y2="55.0929" gradientUnits="userSpaceOnUse">
<stop stop-color="#B4DEFF"/>
<stop offset="1" stop-color="#F8F8F8"/>
</linearGradient>
<linearGradient id="paint4_linear_190_616" x1="19.6617" y1="53.6531" x2="19.6617" y2="55.0929" gradientUnits="userSpaceOnUse">
<stop stop-color="#B4DEFF"/>
<stop offset="1" stop-color="#F8F8F8"/>
</linearGradient>
<linearGradient id="paint5_linear_190_616" x1="21.5112" y1="53.6531" x2="21.5112" y2="55.093" gradientUnits="userSpaceOnUse">
<stop stop-color="#B4DEFF"/>
<stop offset="1" stop-color="#F8F8F8"/>
</linearGradient>
<linearGradient id="paint6_linear_190_616" x1="22.5826" y1="53.6531" x2="22.5826" y2="55.0929" gradientUnits="userSpaceOnUse">
<stop stop-color="#B4DEFF"/>
<stop offset="1" stop-color="#F8F8F8"/>
</linearGradient>
<linearGradient id="paint7_linear_190_616" x1="23.9924" y1="53.6531" x2="23.9924" y2="55.0929" gradientUnits="userSpaceOnUse">
<stop stop-color="#B4DEFF"/>
<stop offset="1" stop-color="#F8F8F8"/>
</linearGradient>
<linearGradient id="paint8_linear_190_616" x1="26.5174" y1="53.6531" x2="26.5174" y2="55.0929" gradientUnits="userSpaceOnUse">
<stop stop-color="#B4DEFF"/>
<stop offset="1" stop-color="#F8F8F8"/>
</linearGradient>
<linearGradient id="paint9_linear_190_616" x1="27.2933" y1="53.6531" x2="27.2933" y2="55.0929" gradientUnits="userSpaceOnUse">
<stop stop-color="#B4DEFF"/>
<stop offset="1" stop-color="#F8F8F8"/>
</linearGradient>
<linearGradient id="paint10_linear_190_616" x1="28.8786" y1="53.6531" x2="28.8786" y2="55.0929" gradientUnits="userSpaceOnUse">
<stop stop-color="#B4DEFF"/>
<stop offset="1" stop-color="#F8F8F8"/>
</linearGradient>
<linearGradient id="paint11_linear_190_616" x1="30.528" y1="53.6531" x2="30.528" y2="55.0929" gradientUnits="userSpaceOnUse">
<stop stop-color="#B4DEFF"/>
<stop offset="1" stop-color="#F8F8F8"/>
</linearGradient>
<linearGradient id="paint12_linear_190_616" x1="32.5652" y1="53.6531" x2="32.5652" y2="55.0929" gradientUnits="userSpaceOnUse">
<stop stop-color="#B4DEFF"/>
<stop offset="1" stop-color="#F8F8F8"/>
</linearGradient>
<linearGradient id="paint13_linear_190_616" x1="33.9212" y1="53.6531" x2="33.9212" y2="55.0929" gradientUnits="userSpaceOnUse">
<stop stop-color="#B4DEFF"/>
<stop offset="1" stop-color="#F8F8F8"/>
</linearGradient>
<linearGradient id="paint14_linear_190_616" x1="35.43" y1="53.6531" x2="35.43" y2="55.0929" gradientUnits="userSpaceOnUse">
<stop stop-color="#B4DEFF"/>
<stop offset="1" stop-color="#F8F8F8"/>
</linearGradient>
<linearGradient id="paint15_linear_190_616" x1="37.6471" y1="53.6531" x2="37.6471" y2="55.0929" gradientUnits="userSpaceOnUse">
<stop stop-color="#B4DEFF"/>
<stop offset="1" stop-color="#F8F8F8"/>
</linearGradient>
<linearGradient id="paint16_linear_190_616" x1="39.2121" y1="53.6531" x2="39.2121" y2="55.0929" gradientUnits="userSpaceOnUse">
<stop stop-color="#B4DEFF"/>
<stop offset="1" stop-color="#F8F8F8"/>
</linearGradient>
<linearGradient id="paint17_linear_190_616" x1="40.8613" y1="53.6531" x2="40.8613" y2="55.0929" gradientUnits="userSpaceOnUse">
<stop stop-color="#B4DEFF"/>
<stop offset="1" stop-color="#F8F8F8"/>
</linearGradient>
<linearGradient id="paint18_linear_190_616" x1="42.3506" y1="53.6531" x2="42.3506" y2="55.0929" gradientUnits="userSpaceOnUse">
<stop stop-color="#B4DEFF"/>
<stop offset="1" stop-color="#F8F8F8"/>
</linearGradient>
<linearGradient id="paint19_linear_190_616" x1="43.9177" y1="53.6531" x2="43.9177" y2="55.0929" gradientUnits="userSpaceOnUse">
<stop stop-color="#B4DEFF"/>
<stop offset="1" stop-color="#F8F8F8"/>
</linearGradient>
<linearGradient id="paint20_linear_190_616" x1="46.1602" y1="53.6531" x2="46.1602" y2="55.0929" gradientUnits="userSpaceOnUse">
<stop stop-color="#B4DEFF"/>
<stop offset="1" stop-color="#F8F8F8"/>
</linearGradient>
<linearGradient id="paint21_linear_190_616" x1="48.3045" y1="53.6531" x2="48.3045" y2="55.0929" gradientUnits="userSpaceOnUse">
<stop stop-color="#B4DEFF"/>
<stop offset="1" stop-color="#F8F8F8"/>
</linearGradient>
<linearGradient id="paint22_linear_190_616" x1="50.2756" y1="53.6531" x2="50.2756" y2="55.0929" gradientUnits="userSpaceOnUse">
<stop stop-color="#B4DEFF"/>
<stop offset="1" stop-color="#F8F8F8"/>
</linearGradient>
<clipPath id="clip0_190_616">
<rect width="63" height="56" fill="white"/>
</clipPath>
</defs>
</svg>
